<?xml version="1.0" encoding="UTF-8"?>
<svg width="15px" height="24px" viewBox="0 0 15 24" version="1.1" xmlns="http://www.w3.org/2000/svg" xmlns:xlink="http://www.w3.org/1999/xlink">
    <!-- Generator: Sketch 60 (88103) - https://sketch.com -->
    <title>odnoklassniki-logo</title>
    <desc>Created with Sketch.</desc>
    <g id="Page-1" stroke="none" stroke-width="1" fill="none" fill-rule="evenodd">
        <g id="Меню" transform="translate(-178.000000, -520.000000)" fill="#B7968B" fill-rule="nonzero">
            <g id="Социальные-сети" transform="translate(32.000000, 520.000000)">
                <g id="odnoklassniki-logo" transform="translate(146.000000, 0.000000)">
                    <path d="M6.01025,16.8135 C4.15975,16.6205 2.49125,16.16475 1.06275,15.0475 C0.8855,14.9085 0.7025,14.7745 0.54075,14.61925 C-0.0845,14.01875 -0.1475,13.331 0.34725,12.62225 C0.7705,12.01575 1.481,11.8535 2.2195,12.20175 C2.3625,12.26925 2.49875,12.3535 2.62925,12.444 C5.2915,14.27325 8.94875,14.32375 11.621,12.52625 C11.88575,12.32325 12.16875,12.15775 12.49675,12.07325 C13.1345,11.9095 13.72925,12.14375 14.0715,12.70175 C14.4625,13.339 14.4575,13.961 13.97575,14.45575 C13.23675,15.21425 12.348,15.763 11.3605,16.146 C10.42675,16.508 9.404,16.69025 8.39175,16.81125 C8.5445,16.9775 8.6165,17.05925 8.712,17.15525 C10.0865,18.53625 11.467,19.9115 12.837,21.29675 C13.30375,21.76875 13.40125,22.354 13.14425,22.903 C12.86325,23.503 12.23425,23.89775 11.6175,23.8555 C11.22675,23.8285 10.922,23.634 10.65125,23.36125 C9.614,22.3175 8.55725,21.293 7.541,20.2295 C7.24525,19.92025 7.103,19.97875 6.842,20.24725 C5.7985,21.3215 4.738,22.37925 3.67125,23.431 C3.19225,23.90325 2.62225,23.98825 2.06675,23.7185 C1.47625,23.43225 1.1005,22.8295 1.1295,22.22375 C1.1495,21.814 1.351,21.501 1.63225,21.22025 C2.9925,19.862 4.349,18.50025 5.706,17.13975 C5.79575,17.04925 5.8795,16.95325 6.01025,16.8135 Z" id="Shape"></path>
                    <path d="M7.1375,12.0822869 C3.83625,12.071 1.12925,9.33425 1.14839796,6.02775 C1.1675,2.68475 3.87625,-0.00925 7.21,-2.37490846e-05 C10.5505,0.009 13.23175,2.74175 13.2150781,6.1195 C13.198,9.41925 10.47225,12.09375 7.1375,12.0822869 Z M10.1377673,6.03575 C10.132,4.394 8.8245,3.087 7.186,3.08549828 C5.53375,3.08375 4.2145,4.4145 4.22725,6.07125 C4.2395,7.70675 5.55825,9.0045 7.20125,8.99852072 C8.83925,8.99275 10.14325,7.67725 10.1377673,6.03575 Z" id="Shape"></path>
                </g>
            </g>
        </g>
    </g>
</svg>