<?xml version="1.0" encoding="UTF-8"?>
<svg width="13px" height="24px" viewBox="0 0 13 24" version="1.1" xmlns="http://www.w3.org/2000/svg" xmlns:xlink="http://www.w3.org/1999/xlink">
    <!-- Generator: Sketch 60 (88103) - https://sketch.com -->
    <title>Shape</title>
    <desc>Created with Sketch.</desc>
    <g id="Page-1" stroke="none" stroke-width="1" fill="none" fill-rule="evenodd">
        <g id="Меню" transform="translate(-113.000000, -520.000000)" fill="#B7968B" fill-rule="nonzero">
            <g id="Социальные-сети" transform="translate(32.000000, 520.000000)">
                <g id="facebook-logo-(2)" transform="translate(81.000000, 0.000000)">
                    <path d="M12.4092841,0.00496252262 L9.31639183,0 C5.8416335,0 3.59609201,2.30385112 3.59609201,5.86967175 L3.59609201,8.57598346 L0.486327216,8.57598346 C0.217606617,8.57598346 0,8.7938382 0,9.0625588 L0,12.983696 C0,13.2524166 0.217854743,13.4700233 0.486327216,13.4700233 L3.59609201,13.4700233 L3.59609201,23.3643009 C3.59609201,23.6330215 3.81369863,23.8506281 4.08241923,23.8506281 L8.13977772,23.8506281 C8.40849832,23.8506281 8.62610494,23.6327733 8.62610494,23.3643009 L8.62610494,13.4700233 L12.2621453,13.4700233 C12.5308659,13.4700233 12.7484725,13.2524166 12.7484725,12.983696 L12.7499612,9.0625588 C12.7499612,8.93353321 12.6985991,8.8099664 12.6075368,8.71865598 C12.5164745,8.62734557 12.3924115,8.57598346 12.2633859,8.57598346 L8.62610494,8.57598346 L8.62610494,6.28180925 C8.62610494,5.17913673 8.88887051,4.61936418 10.3252727,4.61936418 L12.4087878,4.6186198 C12.6772603,4.6186198 12.8948669,4.40076506 12.8948669,4.13229258 L12.8948669,0.491289739 C12.8948669,0.223065392 12.6775084,0.00545877488 12.4092841,0.00496252262 Z" id="Shape"></path>
                </g>
            </g>
        </g>
    </g>
</svg>