<?xml version="1.0" encoding="UTF-8"?>
<svg width="24px" height="17px" viewBox="0 0 24 17" version="1.1" xmlns="http://www.w3.org/2000/svg" xmlns:xlink="http://www.w3.org/1999/xlink">
    <!-- Generator: Sketch 60 (88103) - https://sketch.com -->
    <title>youtube-symbol (1) 2</title>
    <desc>Created with Sketch.</desc>
    <g id="Page-1" stroke="none" stroke-width="1" fill="none" fill-rule="evenodd">
        <g id="Меню" transform="translate(-319.000000, -524.000000)" fill="#B7968B" fill-rule="nonzero">
            <g id="Социальные-сети" transform="translate(32.000000, 520.000000)">
                <g id="youtube-symbol-(1)-2" transform="translate(287.000000, 4.000000)">
                    <g id="youtube-symbol-(1)">
                        <path d="M23.5548866,2.85476289 C23.2614433,1.58004124 22.2188041,0.639587629 20.9636289,0.499298969 C17.9913402,0.167505155 14.9829278,0.165773196 11.9883711,0.167505155 C8.99331959,0.165773196 5.98441237,0.167505155 3.01212371,0.499298969 C1.75769072,0.639587629 0.715793814,1.58004124 0.422350515,2.85476289 C0.00470103093,4.67010309 0,6.65171134 0,8.52074227 C0,10.3897732 0,12.371134 0.417649485,14.1862268 C0.710597938,15.460701 1.75274227,16.4011546 3.00791753,16.5416907 C5.97995876,16.873732 8.98861856,16.8754639 11.9836701,16.873732 C14.9792165,16.8754639 17.987134,16.873732 20.9589278,16.5416907 C22.2133608,16.4014021 23.2562474,15.4609485 23.5496907,14.1862268 C23.9675876,12.3708866 23.9690731,10.3895258 23.9690731,8.52074227 C23.9690731,6.65171134 23.9725361,4.67010309 23.5548866,2.85476289 Z M8.89138144,12.2409897 C8.89138144,9.58960825 8.89138144,6.96593814 8.89138144,4.31430928 C11.4316701,5.63975258 13.955134,6.95628866 16.5115052,8.28989691 C13.9630515,9.61162887 11.4383505,10.9202474 8.89138144,12.2409897 Z" id="Shape"></path>
                    </g>
                </g>
            </g>
        </g>
    </g>
</svg>