<?xml version="1.0" encoding="UTF-8"?>
<svg width="150px" height="16px" viewBox="0 0 150 16" version="1.1" xmlns="http://www.w3.org/2000/svg" xmlns:xlink="http://www.w3.org/1999/xlink">
    <!-- Generator: Sketch 53.2 (72643) - https://sketchapp.com -->
    <title>logo</title>
    <desc>Created with Sketch.</desc>
    <g id="Symbols" stroke="none" stroke-width="1" fill="none" fill-rule="evenodd">
        <g id="Шапка-внутренняя-375" transform="translate(-40.000000, -2.000000)" fill="#211F1F">
            <g id="Шапка-внутренняя">
                <g id="Шапка">
                    <g id="logo-2" transform="translate(40.000000, 2.000000)">
                        <g id="logo" transform="translate(0.000000, 1.000000)">
                            <path d="M34.411232,0.0957175269 C33.9478028,0.231045655 33.5115821,0.447023656 33.122398,0.733834373 C32.2398959,1.39109472 31.7954704,2.51418037 31.8907045,3.85422575 C31.9922874,5.25170164 32.3605257,6.03658537 33.2493767,6.71298922 C33.9922022,7.28091322 34.208066,7.36386841 36.2143297,7.90626773 C36.9000148,8.08494044 37.6174446,8.32104368 37.8777509,8.44866704 C38.8237424,8.91449234 39.3062615,9.85890528 39.2110274,11.0458026 C39.1411891,11.9008792 38.7539041,12.4177538 37.865053,12.8580545 C37.3253935,13.1260635 36.7603382,13.2281622 36.0810021,13.1771129 C35.0715213,13.1005389 34.2969511,12.7431934 33.4525427,11.9455474 C32.8557427,11.3840045 32.3986193,10.7267442 31.9859385,9.85252411 C31.7065853,9.25269427 31.6557938,9.18250142 31.5034194,9.18250142 L31.3383471,9.18250142 L31.3764407,10.567215 C31.4018364,11.3329552 31.4208832,12.2965116 31.4208832,12.7049064 L31.4208832,13.4578843 L31.6748407,13.4578843 C31.9097513,13.4578843 31.9287981,13.4387408 32.0494279,13.1771129 C32.1827555,12.8644356 32.4367129,12.6921441 32.7541597,12.6921441 C32.8620916,12.6921441 33.2430278,12.8197674 33.5985682,12.9729155 C34.7286788,13.4642655 35.5286447,13.6493193 36.5635212,13.6493193 C37.7190275,13.6493193 38.4428062,13.3685479 39.1729338,12.6347136 C40.0236912,11.779637 40.4300231,10.6629325 40.3538359,9.37393647 C40.2586018,7.72121384 39.3253083,6.43859898 37.8523552,5.92172433 C37.6491892,5.85153148 36.8428744,5.62180942 36.0619553,5.41123086 C34.4810703,4.99007374 33.9985512,4.79225752 33.5287299,4.36471923 C33.1287469,4.00099263 32.9446278,3.61174135 32.9001853,3.03105502 C32.8493938,2.39931934 32.9636746,1.92073171 33.2747725,1.45490641 C33.7572916,0.733834373 34.3794873,0.427538287 35.3572234,0.421157119 C36.8873169,0.408394782 38.1126615,1.26347136 38.9634189,2.94171866 C39.1602359,3.3182076 39.2300742,3.41392513 39.3697508,3.42668746 L39.5348232,3.44583097 L39.5030785,1.89520703 C39.4903806,1.04013046 39.4649849,0.306296086 39.452287,0.261627907 C39.3951466,0.08295519 39.1221423,0.185053885 38.9443721,0.446681792 C38.7792998,0.695547362 38.760253,0.708309699 38.5126445,0.676403857 C38.366619,0.66364152 37.9920318,0.548780488 37.674585,0.421157119 C37.3285147,0.289806063 36.9743507,0.181099104 36.6143127,0.0957175269 C36.0048149,-0.0319058423 34.8747043,-0.0319058423 34.411232,0.0957175269 Z" id="Path"></path>
                            <path d="M87.2597735,0.16591038 C86.421714,0.459444129 85.7614246,0.982699943 85.3614417,1.66548497 C85.2321144,1.92799194 85.1320406,2.20405706 85.0630417,2.4886557 C84.8281311,3.40116279 84.9551098,4.71568349 85.3550928,5.59628474 C85.6407949,6.22802042 86.5677395,7.03842881 87.3486586,7.33834373 C87.5264288,7.40215542 88.3454415,7.64463982 89.1644542,7.87436188 C90.770735,8.31466251 91.164369,8.48057289 91.5389562,8.85706183 C92.2944796,9.61642087 92.5166923,10.8990357 92.0468711,11.8498298 C91.659586,12.6474759 90.5866158,13.2026375 89.4184117,13.2026375 C87.7740373,13.2026375 86.1868033,12.0731707 85.2154162,10.2034884 C85.0820885,9.94186047 84.9170162,9.60365854 84.8598758,9.45689166 C84.7709907,9.23355077 84.7201992,9.18250142 84.5932205,9.18250142 L84.4344971,9.18250142 L84.4344971,10.6374078 C84.4344971,11.4414351 84.4535439,12.4049915 84.4789396,12.7750993 L84.5170332,13.4578843 L84.7519439,13.4578843 C84.9678077,13.4578843 84.9932034,13.4387408 85.0884374,13.2026375 C85.2129256,12.9019091 85.5009961,12.7022312 85.824914,12.6921441 C85.9391948,12.6921441 86.2820374,12.8006239 86.5867863,12.9410096 C87.704199,13.445122 88.5740032,13.6493193 89.5707861,13.6493193 C90.3390073,13.6493193 90.7961307,13.5536018 91.3929307,13.2664492 C92.2817817,12.8325298 93.0055604,11.894498 93.3039604,10.7777935 C93.437288,10.2736812 93.4499859,9.11230856 93.3293561,8.60819626 C93.1694167,7.99429708 92.8694449,7.42626349 92.453203,6.94909246 C91.75482,6.18973341 91.4246754,6.0302042 89.2342925,5.4431367 C88.3898841,5.21341463 87.5581735,4.9581679 87.3740543,4.87521271 C86.8026501,4.6135848 86.3645735,4.23071469 86.1677565,3.82870108 C86.0090331,3.50964265 85.9899863,3.40754396 85.9899863,2.80133296 C85.9899863,2.16959728 86.0026842,2.10578559 86.1995012,1.70377198 C86.9423267,0.178672717 89.0628713,-0.0510493477 90.6881988,1.21242201 C91.1580201,1.58252978 91.659586,2.22064663 91.9960796,2.89066931 C92.2373391,3.36925695 92.2944796,3.4394498 92.4214583,3.42668746 L92.5738327,3.40754396 L92.5674838,2.25893364 C92.5611349,1.62719796 92.5420881,0.899744753 92.5230413,0.644498015 C92.4785987,0.197816222 92.4722498,0.185053885 92.3071774,0.185053885 C92.1801987,0.185053885 92.1167094,0.236103233 92.0341732,0.408394782 C91.8500541,0.791264889 91.7294243,0.784883721 90.275518,0.274390244 C89.6469733,0.0510493477 89.5580882,0.0319058423 88.688284,0.0127623369 C87.8184798,-0.00638116846 87.7422926,2.42861287e-17 87.2597735,0.16591038 Z" id="Path"></path>
                            <path d="M0.101582973,0.229722065 C0.0761872295,0.24886557 0.0571404221,0.344583097 0.0571404221,0.440300624 C0.0571404221,0.612592172 0.0634893579,0.612592172 0.533310606,0.644498015 C0.895199946,0.670022689 1.06027228,0.714690868 1.23169354,0.8295519 C1.65707224,1.12308565 1.64437437,0.906125922 1.64437437,6.54069767 C1.64437437,9.92271696 1.62109494,11.703063 1.57453608,11.8817357 C1.47498864,12.2492424 1.25596441,12.5727078 0.952340368,12.8006239 C0.772284363,12.9018178 0.573483855,12.9648014 0.368238276,12.9856778 C-0.0126978716,13.030346 -0.0126978716,13.030346 0.00634893579,13.2281622 L0.0253957432,13.4259784 L3.64428914,13.4259784 L3.66333595,13.2217811 C3.68238276,13.0048213 3.66333595,12.992059 3.17446789,12.915485 C2.81892749,12.8580545 2.52687644,12.7368123 2.39354879,12.5836642 C2.15863817,12.3284175 2.1459403,12.0221214 2.1649871,6.86613727 L2.18403391,1.83139535 L4.3998125,7.63187748 C5.61880817,10.8160805 6.65368471,13.4897901 6.70447619,13.5727453 C6.75155566,13.6705544 6.8591096,13.7232861 6.96478256,13.7003687 C7.12350596,13.6812252 7.21239106,13.4578843 9.33928455,7.61911514 L11.5423653,1.5570051 L11.5487142,7.28091322 L11.5487142,13.0112025 L9.95386153,13.0112025 L9.97290834,13.2217811 L9.99195515,13.4259784 L12.677555,13.445122 L15.3568059,13.4578843 L15.3568059,13.0112025 L13.8330613,13.0112025 L13.8330613,0.631735678 L15.3568059,0.631735678 L15.3568059,0.185053885 L13.4457762,0.197816222 L11.5283976,0.216959728 L9.68720623,5.23893931 C8.6713765,8.00836642 7.82696804,10.2673001 7.80792123,10.2673001 C7.78887443,10.2673001 6.90002342,8.00198525 5.83975114,5.22617697 L3.90967466,0.185053885 L2.02404073,0.185053885 C0.990433983,0.185053885 0.12062978,0.204197391 0.101582973,0.229722065 Z" id="Path"></path>
                            <path d="M21.1102115,5.71752694 C19.9293094,8.76772547 18.8944329,11.4159104 18.8118967,11.6073454 C18.4754031,12.3603233 17.9357436,12.8516733 17.307199,12.9792967 C17.1484756,13.0112025 17.1294288,13.0431083 17.1484756,13.2217811 L17.1675224,13.4259784 L18.9007818,13.445122 L20.6276924,13.4578843 L20.6276924,13.2409246 C20.6276924,13.0048213 20.5515051,12.9473908 20.2404073,12.9473908 C19.9039137,12.9473908 19.5674201,12.7623369 19.4531393,12.5198525 C19.2563222,12.1050766 19.3452073,11.664776 19.9102626,10.2673001 L20.4181775,9.02297221 L22.3799987,9.0038287 L24.3418198,8.99106636 L25.0402028,10.9117981 C25.4274878,11.971072 25.7449346,12.877198 25.7576325,12.9218661 C25.7766793,12.992059 25.611607,13.0112025 24.8814794,13.0112025 L23.9850096,13.0112025 L24.0040564,13.2153999 L24.0231032,13.4259784 L26.8039371,13.445122 L29.5784221,13.4578843 L29.5784221,13.0112025 L28.2134009,13.0112025 L25.927784,6.59812819 L23.6421671,0.185053885 L23.2485331,0.185053885 L21.1102115,5.71752694 Z M23.3513858,6.1514464 L24.1703985,8.51247873 L22.3863476,8.53162223 C21.4086115,8.5380034 20.5959477,8.5380034 20.5832498,8.52524107 C20.564203,8.49971639 22.3673008,3.86698809 22.4561859,3.73298355 C22.4752327,3.69469654 22.5006284,3.69469654 22.5133263,3.72660238 C22.5260242,3.75850822 22.9006114,4.84968803 23.350116,6.14953205 L23.3513858,6.1514464 Z" id="Shape"></path>
                            <path d="M42.6965932,0.58068633 C42.6775464,0.804027226 42.6458017,1.74844016 42.6267549,2.68647192 L42.5950102,4.39662507 L43.210857,4.39662507 L43.2933931,3.89889393 C43.4648144,2.82685763 43.8647974,1.92073171 44.3790612,1.44852524 C44.893325,0.976318775 45.6424994,0.727453205 46.77261,0.657260352 L47.4202014,0.612592172 L47.4202014,13.0112025 L45.8329675,13.0112025 L45.8329675,13.4578843 L51.2295629,13.4578843 L51.2295629,13.0112025 L49.7058183,13.0112025 L49.7058183,0.612592172 L50.2962693,0.657260352 C51.4581246,0.74659671 52.2834862,1.01460579 52.804099,1.48681225 C53.2675713,1.90796937 53.6231117,2.76304594 53.788184,3.85422575 L53.8707202,4.36471923 L54.1691202,4.38386273 L54.4675201,4.40300624 L54.4675201,3.83508225 C54.4675201,3.52240499 54.4484733,2.57799206 54.4230776,1.72929665 L54.384984,0.185053885 L42.7346868,0.185053885 L42.6965932,0.58068633 Z" id="Path"></path>
                            <path d="M56.7150434,0.274390244 C56.69464,0.34264712 56.6902932,0.414734927 56.7023455,0.484968803 C56.7213923,0.587067499 56.8102774,0.599829836 57.5023114,0.618973341 L58.2768816,0.638116846 L58.2768816,13.0112025 L56.6820289,13.0112025 L56.7010757,13.2217811 L56.7201226,13.4259784 L61.8119691,13.445122 L66.9101645,13.4578843 L66.9355602,13.3174986 C67.0244453,12.9091038 67.3482411,9.34203063 67.2974496,9.29098128 C67.2657049,9.25907544 67.1514241,9.2463131 67.0307943,9.25907544 C66.8276283,9.27821894 66.8212794,9.28460011 66.7133475,9.78871242 C66.3895518,11.3010493 65.8181475,12.1816506 64.8467604,12.6666194 C64.2753561,12.9473908 63.7610923,13.0112025 61.9452967,13.0112025 L60.5612287,13.0112025 L60.5612287,6.63003403 L61.2469138,6.63003403 C62.0278329,6.63003403 62.3198839,6.69384572 62.5928882,6.92994895 C62.8658924,7.16605218 63.0309647,7.51063528 63.2277817,8.32104368 L63.399203,9.02297221 L63.6341136,9.04211571 L63.8626753,9.06125922 L63.8499774,6.3939308 L63.8309306,3.72660238 L63.3928541,3.72660238 L63.3103179,4.23709586 C63.202386,4.86245037 63.005569,5.30913216 62.6881222,5.62180942 C62.3008371,6.01106069 62.0786244,6.08125355 61.2786585,6.10677822 L60.5612287,6.13230289 L60.5612287,0.631735678 L62.0087861,0.631735678 C63.5579264,0.631735678 64.0340966,0.695547362 64.5991519,0.957175269 C65.4181646,1.34642655 66.072105,2.44398752 66.3070156,3.83508225 C66.3451092,4.06480431 66.3578071,4.07756665 66.5927177,4.07756665 L66.8466751,4.07756665 L66.8466751,3.70745888 C66.8466751,3.50964265 66.8022326,2.69923426 66.7514411,1.90796937 C66.7006496,1.11670448 66.6562071,0.408394782 66.6562071,0.325439592 L66.6562071,0.185053885 L61.7040371,0.185053885 C57.4439012,0.185053885 56.7455183,0.197816222 56.7150434,0.274390244 Z" id="Path"></path>
                            <path d="M69.7684554,0.406480431 L69.7684554,0.629821327 L71.2922,0.629821327 L71.2922,13.0092881 L69.7684554,13.0092881 L69.7684554,13.4559699 L75.1650508,13.4559699 L75.1650508,13.0092881 L73.6413062,13.0092881 L73.6413062,6.69193137 L74.7206253,6.69193137 C75.8824806,6.69193137 76.3015103,6.74936188 76.7713316,6.99184628 C77.3617826,7.28538003 77.6030422,8.01283324 77.8950932,10.3611032 C78.1807953,12.6710862 78.4918932,13.2836784 79.5140718,13.5516875 C80.2378505,13.7367413 81.1711441,13.6346427 81.7361994,13.3028219 C81.9296108,13.1765086 82.1029788,13.0216214 82.2504631,12.8433778 L82.4853738,12.5562252 L82.3203014,12.3839336 L82.1488802,12.2180233 L81.9774589,12.3839336 C81.3298675,12.9837635 80.8600462,13.0348128 80.6505313,12.5243193 C80.5997398,12.4030771 80.485459,11.7649603 80.4029228,11.1013188 C79.9711952,7.77034884 79.5648633,7.13861316 77.5268549,6.64726319 C76.5999103,6.41754112 76.5999103,6.42392229 77.1014762,6.36011061 C77.6665315,6.29629892 78.5871272,6.03467102 79.0315527,5.81771129 C79.4632803,5.60713273 80.1680122,4.94349121 80.390225,4.53509643 C80.9362334,3.53325298 80.8346505,2.1932076 80.1616633,1.42108622 C79.6473995,0.82763755 78.3395187,0.374574589 76.8157741,0.253332388 C76.3459529,0.215045377 74.5682508,0.183139535 72.8667361,0.183139535 L69.7684554,0.183139535 L69.7684554,0.406480431 Z M76.5173741,0.78296937 C77.6665315,1.10202779 78.0728634,1.63804594 78.1363528,2.91427964 C78.1871442,3.9735536 78.0030251,4.8031055 77.6030422,5.33274248 C77.4062251,5.59437039 76.6570507,5.96447816 76.0729486,6.08572036 C75.838038,6.13676971 75.1904466,6.2005814 74.6444381,6.2197249 L73.6413062,6.26439308 L73.6413062,0.610677822 L74.8983955,0.648964833 C75.7555018,0.670022689 76.2634167,0.714690868 76.5173741,0.784883721 L76.5173741,0.78296937 Z" id="Shape"></path>
                            <path d="M96.0530496,0.406480431 L96.0530496,0.629821327 L97.5767941,0.629821327 L97.5767941,13.0092881 L96.0530496,13.0092881 L96.0530496,13.4559699 L101.322666,13.4559699 L101.322666,13.0092881 L99.9259004,13.0092881 L99.9259004,7.73206183 L100.611585,7.01737096 L101.290922,6.29629892 L103.15116,9.62088769 C104.166989,11.452283 105.005049,12.9582388 105.005049,12.9773823 C105.005049,12.9965258 104.605066,13.0092881 104.116198,13.0092881 L103.227347,13.0092881 L103.227347,13.4559699 L108.687432,13.4559699 L108.687432,13.0092881 L108.325542,13.0092881 L107.957304,13.002907 L105.398683,8.84876631 L102.840062,4.68824447 L104.351109,3.16952638 C106.31293,1.18498298 106.655772,0.923355077 107.56367,0.70001418 C108.001747,0.591534317 108.020794,0.57877198 108.020794,0.400099263 L108.020794,0.215045377 L103.259092,0.215045377 L103.259092,0.406480431 C103.259092,0.597915485 103.259092,0.597915485 103.728913,0.648964833 C104.706649,0.757444697 105.151075,1.2424135 104.839977,1.86138684 C104.712998,2.09749007 104.338411,2.49950369 101.817883,5.09025808 L99.9259004,7.0301333 L99.9259004,0.629821327 L101.322666,0.629821327 L101.322666,0.183139535 L96.0530496,0.183139535 L96.0530496,0.406480431 Z" id="Path"></path>
                            <path d="M113.76658,6.00467952 C112.179346,10.0950085 111.449219,11.9136415 111.290495,12.1369824 C110.992095,12.5645207 110.661951,12.8197674 110.293713,12.915485 C110.00801,12.9856778 109.988964,13.0048213 109.969917,13.2281622 L109.95087,13.4578843 L113.385644,13.4578843 L113.385644,13.2409246 C113.385644,12.9984402 113.366597,12.9856778 112.865032,12.915485 C112.325372,12.8452921 112.065066,12.4688032 112.134904,11.856211 C112.166649,11.6073454 112.788844,9.9354793 113.138036,9.16335791 L113.214223,8.99106636 L117.11247,8.99106636 L117.836248,10.9819909 L118.560027,12.9792967 L117.690223,12.9984402 L116.81407,13.0175837 L116.81407,13.4578843 L122.337644,13.4578843 L122.337644,13.0175837 L121.658308,12.9984402 L120.98532,12.9792967 L118.699704,6.57898469 L116.414087,0.185053885 L116.020453,0.185053885 L113.76658,6.00467952 Z M116.128385,6.14506523 C116.57281,7.44044243 116.934699,8.51247873 116.922001,8.52524107 C116.909304,8.5380034 116.09664,8.5380034 115.112555,8.53162223 L113.334853,8.51247873 L114.293542,6.06849121 C114.820504,4.72206466 115.264929,3.65640953 115.283976,3.70745888 C115.303023,3.75850822 115.67761,4.84968803 116.128385,6.14506523 L116.128385,6.14506523 Z" id="Shape"></path>
                            <path d="M123.607431,0.406480431 L123.607431,0.629821327 L124.801031,0.629821327 L126.839039,4.41385423 L128.877048,8.19788712 L128.877048,13.0092881 L127.282195,13.0092881 L127.301242,13.2134855 L127.320289,13.4240641 L130.005888,13.4432076 L132.685139,13.4559699 L132.685139,13.0092881 L131.161395,13.0092881 L131.161395,7.6554878 L132.627999,4.9243477 C134.246977,1.91881736 134.335863,1.77205048 134.805684,1.28070051 C135.192969,0.872305729 135.504067,0.70001418 135.929445,0.648964833 C136.234194,0.610677822 136.240543,0.604296653 136.240543,0.393718094 L136.240543,0.183139535 L134.069207,0.195901872 L131.891522,0.215045377 L131.891522,0.406480431 C131.891522,0.591534317 131.897871,0.591534317 132.38039,0.66172717 C132.913701,0.731920023 133.129565,0.853162223 133.370824,1.20412649 C133.529548,1.44022972 133.554943,1.86776801 133.440663,2.23149461 C133.358126,2.48674135 130.894739,7.13223199 130.837599,7.13861316 C130.818552,7.13861316 130.063029,5.68370675 129.155131,3.89697958 L127.504408,0.66172717 L128.20914,0.629821327 L128.907522,0.597915485 L128.907522,0.215045377 L126.260016,0.195901872 L123.606161,0.183139535 L123.607431,0.406480431 Z" id="Path"></path>
                            <path d="M143.397064,0.587067499 C143.308179,0.810408395 142.298698,3.40116279 141.162238,6.34926262 C140.025779,9.29736245 139.016298,11.8243052 138.927413,11.9646909 C138.635362,12.4751843 138.133796,12.8644356 137.625881,12.9729155 C137.473507,13.0112025 137.448111,13.0431083 137.448111,13.2345434 L137.448111,13.4578843 L140.940026,13.4578843 L140.940026,13.2409246 C140.940026,13.0048213 140.863838,12.9473908 140.540043,12.9473908 C140.216247,12.9473908 139.828962,12.7368123 139.740077,12.5070902 C139.568655,12.0986954 139.670238,11.6073454 140.216247,10.2545377 L140.717813,8.99106636 L142.679634,9.01020987 L144.641455,9.02297221 L145.333489,10.9054169 C145.708076,11.9391662 146.038221,12.8389109 146.057268,12.8963415 C146.089013,13.0048213 146.019174,13.0112025 145.200161,13.0112025 L144.304962,13.0112025 L144.304962,13.4578843 L149.892025,13.4578843 L149.892025,13.0112025 L148.520655,13.0112025 L146.235038,6.61089053 L143.949421,0.216959728 L143.752604,0.197816222 C143.568485,0.178672717 143.549438,0.197816222 143.397064,0.587067499 L143.397064,0.587067499 Z M143.638323,6.10677822 L144.463685,8.51247873 L142.692332,8.53162223 C141.720945,8.5380034 140.908281,8.53162223 140.889234,8.5188599 C140.857489,8.48695406 142.736774,3.69469654 142.781217,3.69469654 C142.800264,3.69469654 143.187549,4.77949518 143.638323,6.10677822 Z" id="Shape"></path>
                        </g>
                    </g>
                </g>
            </g>
        </g>
    </g>
</svg>