<?xml version="1.0" encoding="UTF-8" standalone="no"?>
<!-- Created with Keyshape -->
<svg xmlns="http://www.w3.org/2000/svg" width="388" height="30" viewBox="0 0 388 30">
    <style>
@keyframes v8hlkk6kxdsycryzuo8d2cu0_t { 0% { transform: translate(0px,-0.404651px); animation-timing-function: cubic-bezier(0,0,0.58,1); } 18.8968% { transform: translate(-30px,0px); animation-timing-function: cubic-bezier(0,0,0.58,1); } 54.0347% { transform: translate(-30px,0px); animation-timing-function: cubic-bezier(0.42,0,0.58,1); } 72.9826% { transform: translate(-60px,0px); } 100% { transform: translate(-60px,0px); } }
@keyframes v8hlkk6kxdsycryzuo8d2cu0_o { 0% { opacity: 0; animation-timing-function: cubic-bezier(0,0,0.58,1); } 18.8968% { opacity: 1; animation-timing-function: cubic-bezier(0,0,0.58,1); } 54.0347% { opacity: 1; animation-timing-function: cubic-bezier(0.42,0,0.58,1); } 72.9826% { opacity: 0; } 100% { opacity: 0; } }
@keyframes p07sn4stivd9bravbb9e9kee_t { 0% { transform: translate(0px,-0.404651px); } 2.6557% { transform: translate(0px,-0.404651px); animation-timing-function: cubic-bezier(0,0,0.58,1); } 21.6036% { transform: translate(-30.00473px,0px); animation-timing-function: cubic-bezier(0,0,0.58,1); } 56.7415% { transform: translate(-30.0047px,0px); animation-timing-function: cubic-bezier(0.42,0,0.58,1); } 75.6894% { transform: translate(-60.00473px,0px); } 100% { transform: translate(-60.00473px,0px); } }
@keyframes p07sn4stivd9bravbb9e9kee_o { 0% { opacity: 0; } 2.6558% { opacity: 0; animation-timing-function: cubic-bezier(0,0,0.58,1); } 21.6037% { opacity: 1; animation-timing-function: cubic-bezier(0,0,0.58,1); } 56.7416% { opacity: 1; animation-timing-function: cubic-bezier(0.42,0,0.58,1); } 75.6895% { opacity: 0; } 100% { opacity: 0; } }
@keyframes j8ry3il5aiwfpjjtvky9h0t9_t { 0% { transform: translate(0px,0px); } 5.3626% { transform: translate(0px,0px); animation-timing-function: cubic-bezier(0,0,0.58,1); } 24.3105% { transform: translate(-29.996467px,0px); animation-timing-function: cubic-bezier(0,0,0.58,1); } 59.4484% { transform: translate(-29.9965px,0px); animation-timing-function: cubic-bezier(0.42,0,0.58,1); } 78.3963% { transform: translate(-59.996467px,0px); } 100% { transform: translate(-59.996467px,0px); } }
@keyframes j8ry3il5aiwfpjjtvky9h0t9_o { 0% { opacity: 0; } 5.3626% { opacity: 0; animation-timing-function: cubic-bezier(0,0,0.58,1); } 24.3105% { opacity: 1; animation-timing-function: cubic-bezier(0,0,0.58,1); } 59.4484% { opacity: 1; animation-timing-function: cubic-bezier(0.42,0,0.58,1); } 78.3963% { opacity: 0; } 100% { opacity: 0; } }
@keyframes roib41r6uiog68xtaypxphjx_t { 0% { transform: translate(0px,-0.404651px); } 8.0694% { transform: translate(0px,-0.404651px); animation-timing-function: cubic-bezier(0,0,0.58,1); } 27.0173% { transform: translate(-30.001037px,0px); animation-timing-function: cubic-bezier(0,0,0.58,1); } 62.1552% { transform: translate(-30.001px,0px); animation-timing-function: cubic-bezier(0.42,0,0.58,1); } 81.1031% { transform: translate(-60.001037px,0px); } 100% { transform: translate(-60.001037px,0px); } }
@keyframes roib41r6uiog68xtaypxphjx_o { 0% { opacity: 0; } 8.0695% { opacity: 0; animation-timing-function: cubic-bezier(0,0,0.58,1); } 27.0174% { opacity: 1; animation-timing-function: cubic-bezier(0,0,0.58,1); } 62.1553% { opacity: 1; animation-timing-function: cubic-bezier(0.42,0,0.58,1); } 81.1032% { opacity: 0; } 100% { opacity: 0; } }
@keyframes peot85booi8v13al7ylj8zio_t { 0% { transform: translate(0px,-0.404651px); } 10.7763% { transform: translate(0px,-0.404651px); animation-timing-function: cubic-bezier(0,0,0.58,1); } 29.7242% { transform: translate(-30.004651px,0px); animation-timing-function: cubic-bezier(0,0,0.58,1); } 64.8621% { transform: translate(-30.0047px,0px); animation-timing-function: cubic-bezier(0.42,0,0.58,1); } 83.81% { transform: translate(-60.004651px,0px); } 100% { transform: translate(-60.004651px,0px); } }
@keyframes peot85booi8v13al7ylj8zio_o { 0% { opacity: 0; } 10.7763% { opacity: 0; animation-timing-function: cubic-bezier(0,0,0.58,1); } 29.7242% { opacity: 1; animation-timing-function: cubic-bezier(0,0,0.58,1); } 64.8621% { opacity: 1; animation-timing-function: cubic-bezier(0.42,0,0.58,1); } 83.81% { opacity: 0; } 100% { opacity: 0; } }
@keyframes xccstp2zvl9gmxfha9sgxbjz_t { 0% { transform: translate(0px,-0.400465px); } 13.4831% { transform: translate(0px,-0.400465px); animation-timing-function: cubic-bezier(0,0,0.58,1); } 32.431% { transform: translate(-30.000304px,0px); animation-timing-function: cubic-bezier(0,0,0.58,1); } 67.5689% { transform: translate(-30.0003px,0px); animation-timing-function: cubic-bezier(0.42,0,0.58,1); } 86.5168% { transform: translate(-60.000304px,0px); } 100% { transform: translate(-60.000304px,0px); } }
@keyframes xccstp2zvl9gmxfha9sgxbjz_o { 0% { opacity: 0; } 13.4831% { opacity: 0; animation-timing-function: cubic-bezier(0,0,0.58,1); } 32.4311% { opacity: 1; animation-timing-function: cubic-bezier(0,0,0.58,1); } 67.5689% { opacity: 1; animation-timing-function: cubic-bezier(0.42,0,0.58,1); } 86.5169% { opacity: 0; } 100% { opacity: 0; } }
@keyframes mwubwpwztwaf7rht1w5klih5_t { 0% { transform: translate(0px,-0.011443px); } 16.1899% { transform: translate(0px,-0.011443px); animation-timing-function: cubic-bezier(0,0,0.58,1); } 35.1378% { transform: translate(-30.000048px,0px); animation-timing-function: cubic-bezier(0,0,0.58,1); } 70.2757% { transform: translate(-30px,0px); animation-timing-function: cubic-bezier(0.42,0,0.58,1); } 89.2236% { transform: translate(-60.000048px,0px); } 100% { transform: translate(-60.000048px,0px); } }
@keyframes mwubwpwztwaf7rht1w5klih5_o { 0% { opacity: 0; } 16.19% { opacity: 0; animation-timing-function: cubic-bezier(0,0,0.58,1); } 35.1379% { opacity: 1; animation-timing-function: cubic-bezier(0,0,0.58,1); } 70.2758% { opacity: 1; animation-timing-function: cubic-bezier(0.42,0,0.58,1); } 89.2237% { opacity: 0; } 100% { opacity: 0; } }
@keyframes afac79imk7ui76vdago6bwd3_t { 0% { transform: translate(0px,-0.400465px); } 18.8968% { transform: translate(0px,-0.400465px); animation-timing-function: cubic-bezier(0,0,0.58,1); } 37.8447% { transform: translate(-29.99595px,0px); animation-timing-function: cubic-bezier(0,0,0.58,1); } 72.9826% { transform: translate(-29.996px,0px); animation-timing-function: cubic-bezier(0.42,0,0.58,1); } 91.9305% { transform: translate(-59.99595px,0px); } 100% { transform: translate(-59.99595px,0px); } }
@keyframes afac79imk7ui76vdago6bwd3_o { 0% { opacity: 0; } 18.8968% { opacity: 0; animation-timing-function: cubic-bezier(0,0,0.58,1); } 37.8447% { opacity: 1; animation-timing-function: cubic-bezier(0,0,0.58,1); } 72.9826% { opacity: 1; animation-timing-function: cubic-bezier(0.42,0,0.58,1); } 91.9305% { opacity: 0; } 100% { opacity: 0; } }
@keyframes odur18zf42rtbh7pfx81ggne_t { 0% { transform: translate(0px,-0.404651px); } 21.6036% { transform: translate(0px,-0.404651px); animation-timing-function: cubic-bezier(0,0,0.58,1); } 40.5515% { transform: translate(-29.99585px,0px); animation-timing-function: cubic-bezier(0,0,0.58,1); } 75.6894% { transform: translate(-29.9959px,0px); animation-timing-function: cubic-bezier(0.42,0,0.58,1); } 94.5863% { transform: translate(-59.99585px,0px); } 100% { transform: translate(-59.99585px,0px); } }
@keyframes odur18zf42rtbh7pfx81ggne_o { 0% { opacity: 0; } 21.6037% { opacity: 0; animation-timing-function: cubic-bezier(0,0,0.58,1); } 40.5516% { opacity: 1; animation-timing-function: cubic-bezier(0,0,0.58,1); } 75.6895% { opacity: 1; animation-timing-function: cubic-bezier(0.42,0,0.58,1); } 94.5863% { opacity: 0; } 100% { opacity: 0; } }
@keyframes mummjkj9k24h85jdw9yi9dtf_t { 0% { transform: translate(0px,-0.400465px); } 24.3105% { transform: translate(0px,-0.400465px); animation-timing-function: cubic-bezier(0,0,0.58,1); } 43.2584% { transform: translate(-29.99542px,0px); animation-timing-function: cubic-bezier(0,0,0.58,1); } 78.3963% { transform: translate(-29.9954px,0px); animation-timing-function: cubic-bezier(0.42,0,0.58,1); } 97.2931% { transform: translate(-59.99542px,0px); } 100% { transform: translate(-59.99542px,0px); } }
@keyframes mummjkj9k24h85jdw9yi9dtf_o { 0% { opacity: 0; } 24.3105% { opacity: 0; animation-timing-function: cubic-bezier(0,0,0.58,1); } 43.2584% { opacity: 1; animation-timing-function: cubic-bezier(0,0,0.58,1); } 78.3963% { opacity: 1; animation-timing-function: cubic-bezier(0.42,0,0.58,1); } 97.2932% { opacity: 0; } 100% { opacity: 0; } }
@keyframes u2dv0soq68kp2wlljonkr1ms_t { 0% { transform: translate(-0.003151px,-0.42182px); } 27.0173% { transform: translate(-0.003151px,-0.42182px); animation-timing-function: cubic-bezier(0,0,0.58,1); } 45.9652% { transform: translate(-30.003151px,0px); animation-timing-function: cubic-bezier(0,0,0.58,1); } 81.1031% { transform: translate(-30.003151px,0px); animation-timing-function: cubic-bezier(0.42,0,0.58,1); } 100% { transform: translate(-60.003151px,0px); } }
@keyframes u2dv0soq68kp2wlljonkr1ms_o { 0% { opacity: 0; } 27.0174% { opacity: 0; animation-timing-function: cubic-bezier(0,0,0.58,1); } 45.9653% { opacity: 1; animation-timing-function: cubic-bezier(0,0,0.58,1); } 81.1032% { opacity: 1; animation-timing-function: cubic-bezier(0.42,0,0.58,1); } 100% { opacity: 0; } }
    </style>
    <title>logo</title>
    <desc>Created with Sketch.</desc>
    <g id="wx3o64lqmdtucz5bxn47v50m" stroke="none" stroke-width="1" fill="none" fill-rule="evenodd" transform="translate(32,0)">
        <g id="uku0hahqqc86asy34qj4kmp3" fill="#211F1F" transform="translate(-100,0)">
            <g id="zn49900g0vjzbg403vw0uaep">
                <g id="irbjy4bxrrwmq0ajl1f7w6cx" transform="translate(100,0)">
                    <g id="ou56zyl0pb4ttdj69pqd7sro" transform="translate(27.9999,0)">
                        <path id="v8hlkk6kxdsycryzuo8d2cu0" d="M0.222128,0.502326C0.166596,0.544186,0.124947,0.753488,0.124947,0.962791C0.124947,1.33953,0.13883,1.33953,1.16617,1.4093C1.9575,1.46512,2.31846,1.56279,2.6933,1.81395C3.62346,2.45581,3.5957,1.9814,3.5957,14.3023C3.5957,21.6977,3.54479,25.5907,3.44299,25.9814C3.22531,26.785,2.74638,27.4923,2.08245,27.9907C1.68873,28.212,1.25402,28.3497,0.805214,28.3953C-0.027766,28.493,-0.027766,28.493,0.013883,28.9256L0.055532,29.3581L7.96885,29.3581L8.01049,28.9116C8.05214,28.4372,8.01049,28.4093,6.9415,28.2419C6.16405,28.1163,5.52544,27.8512,5.23389,27.5163C4.72022,26.9581,4.69246,26.2884,4.73411,15.014L4.77575,4.00465L9.62092,16.6884C12.2865,23.6512,14.5494,29.4977,14.6605,29.6791C14.7634,29.8929,14.9986,30.0083,15.2297,29.9581C15.5767,29.9163,15.7711,29.4279,20.4219,16.6605L25.2393,3.40465L25.2532,15.9209L25.2532,28.4512L21.7658,28.4512L21.8074,28.9116L21.8491,29.3581L27.7216,29.4L33.5802,29.4279L33.5802,28.4512L30.2483,28.4512L30.2483,1.3814L33.5802,1.3814L33.5802,0.404651L29.4014,0.432558L25.2088,0.474419L21.1827,11.4558C18.9614,17.5116,17.115,22.4512,17.0733,22.4512C17.0317,22.4512,15.0881,17.4977,12.7696,11.4279L8.54916,0.404651L4.4259,0.404651C2.16575,0.404651,0.263777,0.446512,0.222128,0.502326Z" opacity="0" transform="translate(0,-0.404651)" style="animation: 1.958s linear infinite both v8hlkk6kxdsycryzuo8d2cu0_t, 1.958s linear infinite both v8hlkk6kxdsycryzuo8d2cu0_o;"/>
                        <path id="p07sn4stivd9bravbb9e9kee" d="M46.161,12.5023C43.5788,19.1721,41.3158,24.9628,41.1353,25.3814C40.3995,27.0279,39.2195,28.1023,37.8451,28.3814C37.498,28.4512,37.4564,28.5209,37.498,28.9116L37.5396,29.3581L41.3297,29.4L45.1059,29.4279L45.1059,28.9535C45.1059,28.4372,44.9393,28.3116,44.259,28.3116C43.5232,28.3116,42.7874,27.907,42.5375,27.3767C42.1072,26.4698,42.3015,25.507,43.5371,22.4512L44.6477,19.7302L48.9376,19.6884L53.2274,19.6605L54.7546,23.8605C55.6014,26.1767,56.2956,28.1581,56.3234,28.2558C56.365,28.4093,56.004,28.4512,54.4075,28.4512L52.4472,28.4512L52.4889,28.8977L52.5305,29.3581L58.6113,29.4L64.6781,29.4279L64.6781,28.4512L61.6933,28.4512L56.6954,14.4279L51.6975,0.404651L50.8368,0.404651L46.161,12.5023ZM51.0617,13.4512L52.8526,18.614L48.9515,18.6558C46.8135,18.6698,45.0365,18.6698,45.0087,18.6419C44.9671,18.586,48.9098,8.45581,49.1042,8.16279C49.1458,8.07907,49.2014,8.07907,49.2291,8.14884C49.2569,8.2186,50.076,10.6047,51.0589,13.447L51.0617,13.4512Z" opacity="0" transform="translate(0,-0.404651)" style="animation: 1.958s linear infinite both p07sn4stivd9bravbb9e9kee_t, 1.958s linear infinite both p07sn4stivd9bravbb9e9kee_o;"/>
                        <path id="j8ry3il5aiwfpjjtvky9h0t9" d="M75.2459,0.209302C74.2325,0.50522,73.2787,0.977492,72.4276,1.60465C70.4979,3.04186,69.5261,5.49767,69.7343,8.42791C69.9565,11.4837,70.7617,13.2,72.7053,14.6791C74.3296,15.9209,74.8016,16.1023,79.1887,17.2884C80.688,17.6791,82.2568,18.1953,82.826,18.4744C84.8946,19.493,85.9497,21.5581,85.7414,24.1535C85.5887,26.0233,84.7419,27.1535,82.7982,28.1163C81.6182,28.7023,80.3826,28.9256,78.8971,28.814C76.6897,28.6465,74.996,27.8651,73.1496,26.1209C71.8446,24.893,70.845,23.4558,69.9426,21.5442C69.3317,20.2326,69.2207,20.0791,68.8875,20.0791L68.5265,20.0791L68.6098,23.107C68.6653,24.7814,68.707,26.8884,68.707,27.7814L68.707,29.4279L69.2623,29.4279C69.776,29.4279,69.8176,29.386,70.0814,28.814C70.373,28.1302,70.9283,27.7535,71.6224,27.7535C71.8584,27.7535,72.6914,28.0326,73.4689,28.3674C75.94,29.4419,77.6893,29.8465,79.9522,29.8465C82.4789,29.8465,84.0616,29.2326,85.6581,27.6279C87.5185,25.7581,88.407,23.3163,88.2404,20.4977C88.0321,16.8837,85.9913,14.0791,82.7705,12.9488C82.3262,12.7953,80.5631,12.293,78.8555,11.8326C75.3986,10.9116,74.3435,10.4791,73.3162,9.54419C72.4415,8.74884,72.0389,7.89767,71.9417,6.62791C71.8307,5.24651,72.0806,4.2,72.7608,3.1814C73.8159,1.60465,75.1765,0.934884,77.3145,0.92093C80.6603,0.893023,83.3397,2.76279,85.2,6.43256C85.6304,7.25581,85.7831,7.46512,86.0885,7.49302L86.4495,7.53488L86.3801,4.14419C86.3523,2.27442,86.2968,0.669767,86.269,0.572093C86.1441,0.181395,85.5471,0.404651,85.1584,0.976744C84.7974,1.52093,84.7558,1.54884,84.2143,1.47907C83.895,1.45116,83.0759,1.2,82.3818,0.92093C81.625,0.633709,80.8506,0.396003,80.0633,0.209302C78.7305,-0.0697674,76.2594,-0.0697674,75.2459,0.209302Z" opacity="0" style="animation: 1.958s linear infinite both j8ry3il5aiwfpjjtvky9h0t9_t, 1.958s linear infinite both j8ry3il5aiwfpjjtvky9h0t9_o;"/>
                        <path id="roib41r6uiog68xtaypxphjx" d="M93.3632,1.26977C93.3216,1.75814,93.2522,3.82326,93.2105,5.87442L93.1411,9.61395L94.4877,9.61395L94.6682,8.52558C95.0431,6.1814,95.9177,4.2,97.0422,3.16744C98.1667,2.13488,99.8049,1.5907,102.276,1.43721L103.692,1.33953L103.692,28.4512L100.221,28.4512L100.221,29.4279L112.022,29.4279L112.022,28.4512L108.69,28.4512L108.69,1.33953L109.981,1.43721C112.522,1.63256,114.327,2.2186,115.465,3.25116C116.478,4.17209,117.256,6.04186,117.617,8.42791L117.797,9.54419L118.45,9.58605L119.102,9.62791L119.102,8.38605C119.102,7.70233,119.061,5.63721,119.005,3.7814L118.922,0.404651L93.4465,0.404651L93.3632,1.26977Z" opacity="0" transform="translate(0,-0.404651)" style="animation: 1.958s linear infinite both roib41r6uiog68xtaypxphjx_t, 1.958s linear infinite both roib41r6uiog68xtaypxphjx_o;"/>
                        <path id="peot85booi8v13al7ylj8zio" d="M124.017,0.6C123.972,0.749255,123.963,0.906887,123.989,1.06047C124.031,1.28372,124.225,1.31163,125.738,1.35349L127.432,1.39535L127.432,28.4512L123.945,28.4512L123.986,28.9116L124.028,29.3581L135.162,29.4L146.31,29.4279L146.366,29.1209C146.56,28.2279,147.268,20.4279,147.157,20.3163C147.088,20.2465,146.838,20.2186,146.574,20.2465C146.13,20.2884,146.116,20.3023,145.88,21.4047C145.172,24.7116,143.922,26.6372,141.798,27.6977C140.549,28.3116,139.424,28.4512,135.454,28.4512L132.427,28.4512L132.427,14.4977L133.927,14.4977C135.634,14.4977,136.273,14.6372,136.87,15.1535C137.467,15.6698,137.828,16.4233,138.258,18.1953L138.633,19.7302L139.147,19.7721L139.646,19.814L139.619,13.9814L139.577,8.14884L138.619,8.14884L138.439,9.26512C138.203,10.6326,137.772,11.6093,137.078,12.293C136.231,13.1442,135.745,13.2977,133.996,13.3535L132.427,13.4093L132.427,1.3814L135.593,1.3814C138.98,1.3814,140.021,1.52093,141.257,2.09302C143.048,2.94419,144.478,5.34419,144.991,8.38605C145.075,8.88837,145.102,8.91628,145.616,8.91628L146.171,8.91628L146.171,8.10698C146.171,7.67442,146.074,5.90233,145.963,4.17209C145.852,2.44186,145.755,0.893023,145.755,0.711628L145.755,0.404651L134.926,0.404651C125.611,0.404651,124.084,0.432558,124.017,0.6Z" opacity="0" transform="translate(0,-0.404651)" style="animation: 1.958s linear infinite both peot85booi8v13al7ylj8zio_t, 1.958s linear infinite both peot85booi8v13al7ylj8zio_o;"/>
                        <path id="xccstp2zvl9gmxfha9sgxbjz" d="M152.56,0.888837L152.56,1.37721L155.892,1.37721L155.892,28.447L152.56,28.447L152.56,29.4237L164.361,29.4237L164.361,28.447L161.029,28.447L161.029,14.633L163.389,14.633C165.93,14.633,166.846,14.7586,167.873,15.2888C169.164,15.9307,169.692,17.5214,170.331,22.6563C170.955,27.7074,171.636,29.047,173.871,29.633C175.453,30.0377,177.494,29.8144,178.73,29.0888C179.153,28.8126,179.532,28.4739,179.854,28.0842L180.368,27.4563L180.007,27.0795L179.632,26.7167L179.257,27.0795C177.841,28.3912,176.814,28.5028,176.356,27.3865C176.245,27.1214,175.995,25.726,175.814,24.2749C174.87,16.9912,173.982,15.6098,169.525,14.5353C167.498,14.033,167.498,14.047,168.595,13.9074C169.831,13.7679,171.844,13.1958,172.816,12.7214C173.76,12.2609,175.301,10.8098,175.787,9.91674C176.981,7.72605,176.758,4.79581,175.287,3.10744C174.162,1.80977,171.302,0.81907,167.97,0.553953C166.943,0.470233,163.056,0.400465,159.335,0.400465L152.56,0.400465L152.56,0.888837ZM167.318,1.71209C169.831,2.40977,170.719,3.58186,170.858,6.37256C170.969,8.68884,170.567,10.5028,169.692,11.6609C169.262,12.233,167.623,13.0423,166.346,13.3074C165.833,13.4191,164.416,13.5586,163.223,13.6005L161.029,13.6981L161.029,1.33535L163.778,1.41907C165.652,1.46512,166.763,1.56279,167.318,1.71628L167.318,1.71209Z" opacity="0" transform="translate(0,-0.400465)" style="animation: 1.958s linear infinite both xccstp2zvl9gmxfha9sgxbjz_t, 1.958s linear infinite both xccstp2zvl9gmxfha9sgxbjz_o;"/>
                        <path id="mwubwpwztwaf7rht1w5klih5" d="M190.808,0.362791C188.975,1.00465,187.532,2.14884,186.657,3.64186C186.374,4.21588,186.155,4.81954,186.005,5.44186C185.491,7.43721,185.769,10.3116,186.643,12.2372C187.268,13.6186,189.295,15.3907,191.002,16.0465C191.391,16.186,193.182,16.7163,194.973,17.2186C198.485,18.1814,199.346,18.5442,200.165,19.3674C201.817,21.0279,202.303,23.8326,201.276,25.9116C200.429,27.6558,198.083,28.8698,195.528,28.8698C191.933,28.8698,188.462,26.4,186.338,22.3116C186.046,21.7395,185.685,21,185.56,20.6791C185.366,20.1907,185.255,20.0791,184.977,20.0791L184.63,20.0791L184.63,23.2605C184.63,25.0186,184.672,27.1256,184.727,27.9349L184.811,29.4279L185.324,29.4279C185.796,29.4279,185.852,29.386,186.06,28.8698C186.332,28.2122,186.962,27.7755,187.67,27.7535C187.92,27.7535,188.67,27.9907,189.336,28.2977C191.78,29.4,193.682,29.8465,195.861,29.8465C197.541,29.8465,198.541,29.6372,199.846,29.0093C201.789,28.0605,203.372,26.0093,204.025,23.5674C204.316,22.4651,204.344,19.9256,204.08,18.8233C203.73,17.4809,203.075,16.2388,202.164,15.1953C200.637,13.5349,199.915,13.186,195.126,11.9023C193.279,11.4,191.461,10.8419,191.058,10.6605C189.808,10.0884,188.851,9.25116,188.42,8.37209C188.073,7.67442,188.031,7.45116,188.031,6.12558C188.031,4.74419,188.059,4.60465,188.49,3.72558C190.114,0.390698,194.751,-0.111628,198.305,2.65116C199.332,3.46047,200.429,4.85581,201.165,6.32093C201.692,7.36744,201.817,7.52093,202.095,7.49302L202.428,7.45116L202.414,4.93953C202.4,3.55814,202.359,1.96744,202.317,1.4093C202.22,0.432558,202.206,0.404651,201.845,0.404651C201.567,0.404651,201.429,0.516279,201.248,0.893023C200.845,1.73023,200.582,1.71628,197.402,0.6C196.028,0.111628,195.834,0.0697674,193.932,0.027907C192.03,-0.0139535,191.863,0,190.808,0.362791Z" opacity="0" transform="translate(0,-0.0114433)" style="animation: 1.958s linear infinite both mwubwpwztwaf7rht1w5klih5_t, 1.958s linear infinite both mwubwpwztwaf7rht1w5klih5_o;"/>
                        <path id="afac79imk7ui76vdago6bwd3" d="M210.036,0.888837L210.036,1.37721L213.368,1.37721L213.368,28.447L210.036,28.447L210.036,29.4237L221.559,29.4237L221.559,28.447L218.505,28.447L218.505,16.9074L220.004,15.3447L221.489,13.7679L225.557,21.0377C227.778,25.0423,229.611,28.3353,229.611,28.3772C229.611,28.4191,228.736,28.447,227.667,28.447L225.724,28.447L225.724,29.4237L237.663,29.4237L237.663,28.447L236.872,28.447L236.067,28.433L230.472,19.3493L224.877,10.2516L228.181,6.9307C232.471,2.59116,233.221,2.01907,235.206,1.5307C236.164,1.29349,236.205,1.26558,236.205,0.874884L236.205,0.470233L225.793,0.470233L225.793,0.888837C225.793,1.30744,225.793,1.30744,226.821,1.41907C228.959,1.65628,229.93,2.71674,229.25,4.07023C228.972,4.58651,228.153,5.46558,222.642,11.1307L218.505,15.3726L218.505,1.37721L221.559,1.37721L221.559,0.400465L210.036,0.400465L210.036,0.888837Z" opacity="0" transform="translate(0,-0.400465)" style="animation: 1.958s linear infinite both afac79imk7ui76vdago6bwd3_t, 1.958s linear infinite both afac79imk7ui76vdago6bwd3_o;"/>
                        <path id="odur18zf42rtbh7pfx81ggne" d="M248.77,13.1302C245.299,22.0744,243.702,26.0512,243.355,26.5395C242.703,27.4744,241.981,28.0326,241.176,28.2419C240.551,28.3953,240.509,28.4372,240.468,28.9256L240.426,29.4279L247.937,29.4279L247.937,28.9535C247.937,28.4233,247.895,28.3953,246.798,28.2419C245.618,28.0884,245.049,27.2651,245.202,25.9256C245.271,25.3814,246.632,21.7256,247.395,20.0372L247.562,19.6605L256.086,19.6605L257.669,24.014L259.251,28.3814L257.349,28.4233L255.433,28.4651L255.433,29.4279L267.512,29.4279L267.512,28.4651L266.026,28.4233L264.555,28.3814L259.557,14.386L254.559,0.404651L253.698,0.404651L248.77,13.1302ZM253.934,13.4372C254.906,16.2698,255.697,18.614,255.669,18.6419C255.642,18.6698,253.865,18.6698,251.713,18.6558L247.826,18.614L249.922,13.2698C251.074,10.3256,252.046,7.99535,252.088,8.10698C252.129,8.2186,252.948,10.6047,253.934,13.4372L253.934,13.4372Z" opacity="0" transform="translate(0,-0.404651)" style="animation: 1.958s linear infinite both odur18zf42rtbh7pfx81ggne_t, 1.958s linear infinite both odur18zf42rtbh7pfx81ggne_o;"/>
                        <path id="mummjkj9k24h85jdw9yi9dtf" d="M270.288,0.888837L270.288,1.37721L272.898,1.37721L277.355,9.65163L281.811,17.926L281.811,28.447L278.324,28.447L278.365,28.8935L278.407,29.354L284.28,29.3958L290.138,29.4237L290.138,28.447L286.806,28.447L286.806,16.74L290.013,10.7679C293.553,4.19581,293.748,3.87488,294.775,2.80047C295.622,1.90744,296.302,1.5307,297.232,1.41907C297.899,1.33535,297.913,1.3214,297.913,0.86093L297.913,0.400465L293.165,0.428372L288.403,0.470233L288.403,0.888837C288.403,1.29349,288.417,1.29349,289.472,1.44698C290.638,1.60047,291.11,1.86558,291.638,2.63302C291.985,3.1493,292.04,4.08419,291.79,4.87953C291.61,5.43767,286.223,15.5958,286.098,15.6098C286.057,15.6098,284.404,12.4284,282.419,8.5214L278.81,1.44698L280.351,1.37721L281.878,1.30744L281.878,0.470233L276.089,0.428372L270.285,0.400465L270.288,0.888837Z" opacity="0" transform="translate(0,-0.400465)" style="animation: 1.958s linear infinite both mummjkj9k24h85jdw9yi9dtf_t, 1.958s linear infinite both mummjkj9k24h85jdw9yi9dtf_o;"/>
                        <path id="u2dv0soq68kp2wlljonkr1ms" d="M313.562,1.28372C313.367,1.77209,311.16,7.43721,308.675,13.8837C306.19,20.3302,303.982,25.8558,303.788,26.1628C303.149,27.2791,302.053,28.1302,300.942,28.3674C300.609,28.4512,300.553,28.5209,300.553,28.9395L300.553,29.4279L308.189,29.4279L308.189,28.9535C308.189,28.4372,308.022,28.3116,307.314,28.3116C306.606,28.3116,305.759,27.8512,305.565,27.3488C305.19,26.4558,305.412,25.3814,306.606,22.4233L307.703,19.6605L311.993,19.7023L316.283,19.7302L317.796,23.8465C318.615,26.107,319.337,28.0744,319.379,28.2C319.448,28.4372,319.295,28.4512,317.504,28.4512L315.547,28.4512L315.547,29.4279L327.764,29.4279L327.764,28.4512L324.765,28.4512L319.767,14.4558L314.769,0.474419L314.339,0.432558C313.936,0.390698,313.895,0.432558,313.562,1.28372L313.562,1.28372ZM314.089,13.3535L315.894,18.614L312.021,18.6558C309.896,18.6698,308.119,18.6558,308.078,18.6279C308.008,18.5581,312.118,8.07907,312.215,8.07907C312.257,8.07907,313.103,10.4512,314.089,13.3535Z" opacity="0" transform="translate(-0.0031508,-0.42182)" style="animation: 1.958s linear infinite both u2dv0soq68kp2wlljonkr1ms_t, 1.958s linear infinite both u2dv0soq68kp2wlljonkr1ms_o;"/>
                    </g>
                </g>
            </g>
        </g>
    </g>
</svg>
