<?xml version="1.0" encoding="UTF-8"?>
<svg width="328px" height="30px" viewBox="0 0 328 30" version="1.1" xmlns="http://www.w3.org/2000/svg" xmlns:xlink="http://www.w3.org/1999/xlink">
    <!-- Generator: Sketch 53.2 (72643) - https://sketchapp.com -->
    <title>logo 2</title>
    <desc>Created with Sketch.</desc>
    <g id="Symbols" stroke="none" stroke-width="1" fill="none" fill-rule="evenodd">
        <g id="Шапка-внутренняя" transform="translate(-100.000000, 0.000000)" fill="#211F1F">
            <g id="Шапка">
                <g id="logo-2" transform="translate(100.000000, 0.000000)">
                    <g id="logo">
                        <path d="M75.2458939,0.209302326 C74.2325289,0.505219833 73.2786596,0.977491728 72.4276437,1.60465116 C70.4979058,3.04186047 69.5260953,5.49767442 69.7343404,8.42790698 C69.9564685,11.4837209 70.7616829,13.2 72.7053038,14.6790698 C74.3296155,15.9209302 74.8016377,16.1023256 79.1886677,17.2883721 C80.6880324,17.6790698 82.2568121,18.1953488 82.8260153,18.4744186 C84.8945833,19.4930233 85.9496918,21.5581395 85.7414467,24.1534884 C85.5887336,26.0232558 84.7418702,27.1534884 82.7982493,28.1162791 C81.6181938,28.7023256 80.3826062,28.9255814 78.8971246,28.8139535 C76.6897266,28.6465116 74.9959998,27.8651163 73.14956,26.1209302 C71.8445574,24.8930233 70.8449809,23.455814 69.9425855,21.544186 C69.3317333,20.2325581 69.2206692,20.0790698 68.8874771,20.0790698 L68.5265189,20.0790698 L68.6098169,23.1069767 C68.665349,24.7813953 68.706998,26.8883721 68.706998,27.7813953 L68.706998,29.427907 L69.2623182,29.427907 C69.7759895,29.427907 69.8176385,29.3860465 70.0814156,28.8139535 C70.3729587,28.1302326 70.928279,27.7534884 71.6224293,27.7534884 C71.8584404,27.7534884 72.6914208,28.0325581 73.4688691,28.3674419 C75.9400442,29.4418605 77.689303,29.8465116 79.952233,29.8465116 C82.4789402,29.8465116 84.0616029,29.2325581 85.6581486,27.627907 C87.5184715,25.7581395 88.4069839,23.3162791 88.2403878,20.4976744 C88.0321427,16.8837209 85.9913408,14.0790698 82.7704833,12.9488372 C82.3262271,12.7953488 80.5630853,12.2930233 78.8554756,11.8325581 C75.398607,10.9116279 74.3434985,10.4790698 73.3161561,9.54418605 C72.4415267,8.74883721 72.0389195,7.89767442 71.9417384,6.62790698 C71.8306744,5.24651163 72.0805685,4.2 72.7608358,3.18139535 C73.8159443,1.60465116 75.1764789,0.934883721 77.3144619,0.920930233 C80.6602664,0.893023256 83.3396866,2.7627907 85.2000094,6.43255814 C85.6303826,7.25581395 85.7830957,7.46511628 86.0885218,7.49302326 L86.44948,7.53488372 L86.3800649,4.14418605 C86.3522989,2.2744186 86.2967669,0.669767442 86.2690009,0.572093023 C86.1440538,0.181395349 85.5470846,0.404651163 85.1583604,0.976744186 C84.7974022,1.52093023 84.7557532,1.54883721 84.214316,1.47906977 C83.8950068,1.45116279 83.0759095,1.2 82.3817591,0.920930233 C81.6250187,0.633709257 80.8505802,0.396003374 80.0632971,0.209302326 C78.7305285,-0.0697674419 76.2593534,-0.0697674419 75.2458939,0.209302326 Z" id="Path"></path>
                        <path d="M190.808038,0.362790698 C188.975481,1.00465116 187.531649,2.14883721 186.657019,3.64186047 C186.374224,4.21587571 186.155396,4.8195381 186.004518,5.44186047 C185.490847,7.4372093 185.768507,10.3116279 186.643136,12.2372093 C187.267871,13.6186047 189.29479,15.3906977 191.0024,16.0465116 C191.391124,16.1860465 193.182032,16.7162791 194.97294,17.2186047 C198.48534,18.1813953 199.346087,18.544186 200.165184,19.3674419 C201.817262,21.027907 202.303167,23.8325581 201.275825,25.9116279 C200.428961,27.655814 198.082733,28.8697674 195.52826,28.8697674 C191.932562,28.8697674 188.46181,26.4 186.33771,22.3116279 C186.046167,21.7395349 185.685209,21 185.560262,20.6790698 C185.3659,20.1906977 185.254836,20.0790698 184.977175,20.0790698 L184.6301,20.0790698 L184.6301,23.2604651 C184.6301,25.0186047 184.671749,27.1255814 184.727281,27.9348837 L184.810579,29.427907 L185.324251,29.427907 C185.796273,29.427907 185.851805,29.3860465 186.06005,28.8697674 C186.332264,28.2121747 186.962178,27.7755456 187.670479,27.7534884 C187.920373,27.7534884 188.670055,27.9906977 189.336439,28.2976744 C191.779848,29.4 193.68182,29.8465116 195.861452,29.8465116 C197.541296,29.8465116 198.540873,29.6372093 199.845875,29.0093023 C201.789496,28.0604651 203.372159,26.0093023 204.02466,23.5674419 C204.316203,22.4651163 204.343969,19.9255814 204.080192,18.8232558 C203.730458,17.480863 203.074519,16.2387628 202.164337,15.1953488 C200.637206,13.5348837 199.91529,13.1860465 195.125653,11.9023256 C193.279213,11.4 191.460539,10.8418605 191.057932,10.6604651 C189.808462,10.0883721 188.850534,9.25116279 188.420161,8.37209302 C188.073086,7.6744186 188.031437,7.45116279 188.031437,6.1255814 C188.031437,4.74418605 188.059203,4.60465116 188.489576,3.7255814 C190.113888,0.390697674 194.750812,-0.111627907 198.304861,2.65116279 C199.332204,3.46046512 200.428961,4.85581395 201.164761,6.32093023 C201.692315,7.36744186 201.817262,7.52093023 202.094922,7.49302326 L202.428114,7.45116279 L202.414231,4.93953488 C202.400348,3.55813953 202.358699,1.96744186 202.31705,1.40930233 C202.219869,0.43255814 202.205986,0.404651163 201.845028,0.404651163 C201.567368,0.404651163 201.428538,0.51627907 201.248059,0.893023256 C200.845452,1.73023256 200.581674,1.71627907 197.402466,0.6 C196.028048,0.111627907 195.833686,0.0697674419 193.931714,0.0279069767 C192.029743,-0.0139534884 191.863147,5.20417043e-17 190.808038,0.362790698 Z" id="Path"></path>
                        <path d="M0.2221281,0.502325581 C0.166596075,0.544186047 0.124947056,0.753488372 0.124947056,0.962790698 C0.124947056,1.33953488 0.138830063,1.33953488 1.16617253,1.40930233 C1.95750388,1.46511628 2.31846205,1.5627907 2.69330321,1.81395349 C3.62346463,2.45581395 3.59569862,1.98139535 3.59569862,14.3023256 C3.59569862,21.6976744 3.54479426,25.5906977 3.44298555,25.9813953 C3.2253085,26.78501 2.74637551,27.4923211 2.08245094,27.9906977 C1.68872847,28.211975 1.25401803,28.349699 0.805214363,28.3953488 C-0.0277660125,28.4930233 -0.0277660125,28.4930233 0.0138830063,28.9255814 L0.055532025,29.3581395 L7.96884559,29.3581395 L8.01049461,28.9116279 C8.05214363,28.4372093 8.01049461,28.4093023 6.94150313,28.2418605 C6.16405478,28.1162791 5.52543649,27.8511628 5.23389336,27.5162791 C4.72022213,26.9581395 4.69245612,26.2883721 4.73410513,15.0139535 L4.77575415,4.00465116 L9.62092334,16.6883721 C12.2864605,23.6511628 14.5493906,29.4976744 14.6604546,29.6790698 C14.7634017,29.8929456 14.9985863,30.0082523 15.2296579,29.9581395 C15.576733,29.9162791 15.7710951,29.427907 20.4219022,16.6604651 L25.2393054,3.40465116 L25.2531884,15.9209302 L25.2531884,28.4511628 L21.7657772,28.4511628 L21.8074262,28.9116279 L21.8490753,29.3581395 L27.7215869,29.4 L33.5802155,29.427907 L33.5802155,28.4511628 L30.248294,28.4511628 L30.248294,1.38139535 L33.5802155,1.38139535 L33.5802155,0.404651163 L29.4014307,0.43255814 L25.2087628,0.474418605 L21.182691,11.455814 C18.9614099,17.5116279 17.1149701,22.4511628 17.0733211,22.4511628 C17.0316721,22.4511628 15.0880512,17.4976744 12.7695892,11.427907 L8.54915525,0.404651163 L4.4259024,0.404651163 C2.16574898,0.404651163 0.263777119,0.446511628 0.2221281,0.502325581 Z" id="Path"></path>
                        <path d="M46.1609958,12.5023256 C43.5787566,19.172093 41.3158266,24.9627907 41.1353475,25.3813953 C40.3995482,27.027907 39.2194927,28.1023256 37.8450751,28.3813953 C37.4979999,28.4511628 37.4563509,28.5209302 37.4979999,28.9116279 L37.5396489,29.3581395 L41.3297096,29.4 L45.1058873,29.427907 L45.1058873,28.9534884 C45.1058873,28.4372093 44.9392913,28.3116279 44.259024,28.3116279 C43.5232246,28.3116279 42.7874253,27.9069767 42.5375312,27.3767442 C42.107158,26.4697674 42.3015201,25.5069767 43.5371076,22.4511628 L44.6477481,19.7302326 L48.9375971,19.6883721 L53.227446,19.6604651 L54.7545767,23.8604651 C55.6014401,26.1767442 56.2955904,28.1581395 56.3233564,28.255814 C56.3650054,28.4093023 56.0040472,28.4511628 54.4075015,28.4511628 L52.447221,28.4511628 L52.4888701,28.8976744 L52.5305191,29.3581395 L58.6112758,29.4 L64.6781496,29.427907 L64.6781496,28.4511628 L61.6933032,28.4511628 L56.695421,14.427907 L51.6975387,0.404651163 L50.8367923,0.404651163 L46.1609958,12.5023256 Z M51.061697,13.4511628 L52.8526048,18.6139535 L48.9514801,18.655814 C46.8134971,18.6697674 45.0364723,18.6697674 45.0087063,18.6418605 C44.9670573,18.5860465 48.9098311,8.45581395 49.1041931,8.1627907 C49.1458422,8.07906977 49.2013742,8.07906977 49.2291402,8.14883721 C49.2569062,8.21860465 50.0760036,10.6046512 51.0589204,13.4469767 L51.061697,13.4511628 Z" id="Shape"></path>
                        <path d="M93.3632171,1.26976744 C93.3215681,1.75813953 93.252153,3.82325581 93.210504,5.8744186 L93.141089,9.61395349 L94.4877406,9.61395349 L94.6682197,8.5255814 C95.0430608,6.18139535 95.9176902,4.2 97.0422138,3.16744186 C98.1667373,2.13488372 99.804932,1.59069767 102.276107,1.4372093 L103.692174,1.33953488 L103.692174,28.4511628 L100.221422,28.4511628 L100.221422,29.427907 L112.021978,29.427907 L112.021978,28.4511628 L108.690056,28.4511628 L108.690056,1.33953488 L109.981176,1.4372093 C112.521766,1.63255814 114.326557,2.21860465 115.464963,3.25116279 C116.478423,4.17209302 117.255871,6.04186047 117.616829,8.42790698 L117.797308,9.54418605 L118.449809,9.58604651 L119.102311,9.62790698 L119.102311,8.38604651 C119.102311,7.70232558 119.060662,5.6372093 119.00513,3.78139535 L118.921832,0.404651163 L93.4465151,0.404651163 L93.3632171,1.26976744 Z" id="Path"></path>
                        <path d="M124.016895,0.6 C123.97228,0.749255036 123.962774,0.906887039 123.989129,1.06046512 C124.030778,1.28372093 124.22514,1.31162791 125.738388,1.35348837 L127.432114,1.39534884 L127.432114,28.4511628 L123.944703,28.4511628 L123.986352,28.9116279 L124.028001,29.3581395 L135.162172,29.4 L146.310226,29.427907 L146.365758,29.1209302 C146.56012,28.227907 147.268154,20.427907 147.15709,20.3162791 C147.087675,20.2465116 146.837781,20.2186047 146.574003,20.2465116 C146.129747,20.2883721 146.115864,20.3023256 145.879853,21.4046512 C145.17182,24.7116279 143.922349,26.6372093 141.798249,27.6976744 C140.548779,28.3116279 139.424255,28.4511628 135.453715,28.4511628 L132.42722,28.4511628 L132.42722,14.4976744 L133.926585,14.4976744 C135.634195,14.4976744 136.272813,14.6372093 136.869782,15.1534884 C137.466751,15.6697674 137.82771,16.4232558 138.258083,18.1953488 L138.632924,19.7302326 L139.146595,19.772093 L139.646383,19.8139535 L139.618617,13.9813953 L139.576968,8.14883721 L138.619041,8.14883721 L138.438562,9.26511628 C138.202551,10.6325581 137.772178,11.6093023 137.078027,12.2930233 C136.231164,13.144186 135.745259,13.2976744 133.996,13.3534884 L132.42722,13.4093023 L132.42722,1.38139535 L135.592546,1.38139535 C138.979999,1.38139535 140.021225,1.52093023 141.256812,2.09302326 C143.04772,2.94418605 144.47767,5.34418605 144.991341,8.38604651 C145.074639,8.88837209 145.102405,8.91627907 145.616076,8.91627907 L146.171396,8.91627907 L146.171396,8.10697674 C146.171396,7.6744186 146.074215,5.90232558 145.963151,4.17209302 C145.852087,2.44186047 145.754906,0.893023256 145.754906,0.711627907 L145.754906,0.404651163 L134.926161,0.404651163 C125.610664,0.404651163 124.083533,0.43255814 124.016895,0.6 Z" id="Path"></path>
                        <path d="M152.560356,0.888837209 L152.560356,1.3772093 L155.892277,1.3772093 L155.892277,28.4469767 L152.560356,28.4469767 L152.560356,29.4237209 L164.360911,29.4237209 L164.360911,28.4469767 L161.02899,28.4469767 L161.02899,14.6330233 L163.389101,14.6330233 C165.929691,14.6330233 166.845969,14.7586047 167.873312,15.2888372 C169.164431,15.9306977 169.691986,17.5213953 170.330604,22.6562791 C170.955339,27.7074419 171.635606,29.0469767 173.87077,29.6330233 C175.453433,30.0376744 177.494235,29.8144186 178.729823,29.0888372 C179.152749,28.8126321 179.531847,28.4739455 179.854346,28.084186 L180.368017,27.4562791 L180.007059,27.0795349 L179.632218,26.7167442 L179.257377,27.0795349 C177.84131,28.3911628 176.813968,28.5027907 176.355829,27.3865116 C176.244764,27.1213953 175.99487,25.7260465 175.814391,24.2748837 C174.870347,16.9911628 173.981834,15.6097674 169.525389,14.5353488 C167.498471,14.0330233 167.498471,14.0469767 168.595228,13.9074419 C169.830816,13.767907 171.843851,13.195814 172.815662,12.7213953 C173.759706,12.2609302 175.30072,10.8097674 175.786625,9.91674419 C176.980564,7.72604651 176.758436,4.79581395 175.286837,3.10744186 C174.162314,1.80976744 171.302414,0.819069767 167.970493,0.553953488 C166.94315,0.470232558 163.055909,0.400465116 159.335263,0.400465116 L152.560356,0.400465116 L152.560356,0.888837209 Z M167.317991,1.71209302 C169.830816,2.40976744 170.719328,3.58186047 170.858158,6.37255814 C170.969222,8.68883721 170.566615,10.5027907 169.691986,11.6609302 C169.261612,12.2330233 167.623418,13.0423256 166.346181,13.3074419 C165.83251,13.4190698 164.416443,13.5586047 163.222505,13.6004651 L161.02899,13.6981395 L161.02899,1.33534884 L163.777825,1.41906977 C165.652031,1.46511628 166.762671,1.5627907 167.317991,1.71627907 L167.317991,1.71209302 Z" id="Shape"></path>
                        <path d="M210.036002,0.888837209 L210.036002,1.3772093 L213.367923,1.3772093 L213.367923,28.4469767 L210.036002,28.4469767 L210.036002,29.4237209 L221.558897,29.4237209 L221.558897,28.4469767 L218.504636,28.4469767 L218.504636,16.9074419 L220.004,15.3446512 L221.489482,13.767907 L225.557203,21.0376744 C227.778484,25.0423256 229.611041,28.3353488 229.611041,28.3772093 C229.611041,28.4190698 228.736411,28.4469767 227.66742,28.4469767 L225.723799,28.4469767 L225.723799,29.4237209 L237.663184,29.4237209 L237.663184,28.4469767 L236.871853,28.4469767 L236.066638,28.4330233 L230.471787,19.3493023 L224.876935,10.2516279 L228.181091,6.93069767 C232.47094,2.59116279 233.220622,2.01906977 235.205892,1.53069767 C236.163819,1.29348837 236.205468,1.2655814 236.205468,0.874883721 L236.205468,0.470232558 L225.793214,0.470232558 L225.793214,0.888837209 C225.793214,1.30744186 225.793214,1.30744186 226.820556,1.41906977 C228.958539,1.65627907 229.93035,2.71674419 229.250082,4.07023256 C228.972422,4.58651163 228.153325,5.4655814 222.641771,11.1306977 L218.504636,15.3725581 L218.504636,1.3772093 L221.558897,1.3772093 L221.558897,0.400465116 L210.036002,0.400465116 L210.036002,0.888837209 Z" id="Path"></path>
                        <path d="M248.769589,13.1302326 C245.298838,22.0744186 243.702292,26.0511628 243.355217,26.5395349 C242.702715,27.4744186 241.980799,28.0325581 241.175585,28.2418605 C240.550849,28.3953488 240.5092,28.4372093 240.467551,28.9255814 L240.425902,29.427907 L247.936609,29.427907 L247.936609,28.9534884 C247.936609,28.4232558 247.89496,28.3953488 246.798202,28.2418605 C245.618147,28.0883721 245.048943,27.2651163 245.201657,25.9255814 C245.271072,25.3813953 246.631606,21.7255814 247.395172,20.0372093 L247.561768,19.6604651 L256.085933,19.6604651 L257.668596,24.0139535 L259.251259,28.3813953 L257.349287,28.4232558 L255.433432,28.4651163 L255.433432,29.427907 L267.511648,29.427907 L267.511648,28.4651163 L266.026166,28.4232558 L264.554567,28.3813953 L259.556685,14.3860465 L254.558803,0.404651163 L253.698056,0.404651163 L248.769589,13.1302326 Z M253.934067,13.4372093 C254.905878,16.2697674 255.697209,18.6139535 255.669443,18.6418605 C255.641677,18.6697674 253.864652,18.6697674 251.712786,18.655814 L247.825545,18.6139535 L249.921879,13.2697674 C251.074168,10.3255814 252.045979,7.99534884 252.087628,8.10697674 C252.129277,8.21860465 252.948374,10.6046512 253.934067,13.4372093 L253.934067,13.4372093 Z" id="Shape"></path>
                        <path d="M270.288249,0.888837209 L270.288249,1.3772093 L272.898254,1.3772093 L277.354699,9.65162791 L281.811144,17.9260465 L281.811144,28.4469767 L278.323733,28.4469767 L278.365382,28.8934884 L278.407031,29.3539535 L284.279543,29.395814 L290.138171,29.4237209 L290.138171,28.4469767 L286.80625,28.4469767 L286.80625,16.74 L290.013224,10.767907 C293.553391,4.19581395 293.747753,3.87488372 294.775095,2.80046512 C295.621959,1.90744186 296.302226,1.53069767 297.232387,1.41906977 C297.898772,1.33534884 297.912655,1.32139535 297.912655,0.860930233 L297.912655,0.400465116 L293.164667,0.428372093 L288.402795,0.470232558 L288.402795,0.888837209 C288.402795,1.29348837 288.416678,1.29348837 289.471787,1.44697674 C290.637959,1.60046512 291.109982,1.8655814 291.637536,2.63302326 C291.984611,3.14930233 292.040143,4.08418605 291.790249,4.87953488 C291.60977,5.43767442 286.223163,15.595814 286.098216,15.6097674 C286.056567,15.6097674 284.40449,12.4283721 282.41922,8.52139535 L278.809638,1.44697674 L280.350652,1.3772093 L281.877782,1.30744186 L281.877782,0.470232558 L276.088569,0.428372093 L270.285472,0.400465116 L270.288249,0.888837209 Z" id="Path"></path>
                        <path d="M313.561579,1.28372093 C313.367217,1.77209302 311.159819,7.4372093 308.674761,13.8837209 C306.189703,20.3302326 303.982305,25.855814 303.787943,26.1627907 C303.149325,27.2790698 302.052567,28.1302326 300.941927,28.3674419 C300.608735,28.4511628 300.553203,28.5209302 300.553203,28.9395349 L300.553203,29.427907 L308.188856,29.427907 L308.188856,28.9534884 C308.188856,28.4372093 308.02226,28.3116279 307.314227,28.3116279 C306.606193,28.3116279 305.75933,27.8511628 305.564968,27.3488372 C305.190127,26.455814 305.412255,25.3813953 306.606193,22.4232558 L307.702951,19.6604651 L311.9928,19.7023256 L316.282649,19.7302326 L317.795896,23.8465116 C318.614994,26.1069767 319.33691,28.0744186 319.378559,28.2 C319.447974,28.4372093 319.295261,28.4511628 317.504353,28.4511628 L315.546849,28.4511628 L315.546849,29.427907 L327.763895,29.427907 L327.763895,28.4511628 L324.765165,28.4511628 L319.767283,14.455814 L314.769401,0.474418605 L314.339028,0.43255814 C313.936421,0.390697674 313.894772,0.43255814 313.561579,1.28372093 L313.561579,1.28372093 Z M314.089134,13.3534884 L315.893924,18.6139535 L312.020566,18.655814 C309.896466,18.6697674 308.119441,18.655814 308.077792,18.627907 C308.008377,18.5581395 312.117747,8.07906977 312.214928,8.07906977 C312.256577,8.07906977 313.10344,10.4511628 314.089134,13.3534884 Z" id="Shape"></path>
                    </g>
                </g>
            </g>
        </g>
    </g>
</svg>