<?xml version="1.0" encoding="UTF-8"?>
<svg width="138px" height="30px" viewBox="0 0 138 30" version="1.1" xmlns="http://www.w3.org/2000/svg" xmlns:xlink="http://www.w3.org/1999/xlink">
    <!-- Generator: Sketch 53.2 (72643) - https://sketchapp.com -->
    <title>Redder лого</title>
    <desc>Created with Sketch.</desc>
    <g id="Symbols" stroke="none" stroke-width="1" fill="none" fill-rule="evenodd">
        <g id="Футер" transform="translate(-1372.000000, -491.000000)" fill="#F8F5F2" fill-rule="nonzero">
            <g id="Redder-лого-2">
                <g transform="translate(1372.000000, 491.000000)">
                    <g id="Redder-лого">
                        <path d="M16.2483871,29.3548387 L10.3354839,19.1645161 L5.93225806,19.1645161 L5.93225806,29.3548387 L0.14516129,29.3548387 L0.14516129,0 L11.8870968,0 C14.5989383,0 16.9053668,0.950528129 18.8064516,2.8516129 C20.7075365,4.75269768 21.6580645,7.04514787 21.6580645,9.72903226 C21.6580645,11.5462456 21.1408653,13.2306374 20.1064516,14.7822581 C19.0720379,16.3338787 17.702159,17.5010713 15.9967742,18.283871 L22.4967742,29.3548387 L16.2483871,29.3548387 Z M5.93225806,5.40967742 L5.93225806,14.0903226 L11.8870968,14.0903226 C12.9774248,14.0903226 13.9139746,13.6639828 14.6967742,12.8112903 C15.4795738,11.9585979 15.8709677,10.9311888 15.8709677,9.72903226 C15.8709677,8.52687571 15.4795738,7.50645581 14.6967742,6.66774194 C13.9139746,5.82902806 12.9774248,5.40967742 11.8870968,5.40967742 L5.93225806,5.40967742 Z M29.1645161,21.0935484 C29.8914015,23.7215185 31.8623495,25.0354839 35.0774194,25.0354839 C37.1462469,25.0354839 38.7118226,24.3365661 39.7741935,22.9387097 L44.1354839,25.4548387 C42.0666563,28.4462515 39.019375,29.9419355 34.9935484,29.9419355 C31.5268644,29.9419355 28.7451718,28.8935589 26.6483871,26.7967742 C24.5516024,24.6999895 23.5032258,22.0580805 23.5032258,18.8709677 C23.5032258,15.7118122 24.537624,13.0768923 26.6064516,10.966129 C28.6752792,8.85536579 31.3311666,7.8 34.5741935,7.8 C37.6494777,7.8 40.1865492,8.86235497 42.1854839,10.9870968 C44.1844185,13.1118386 45.183871,15.7397693 45.183871,18.8709677 C45.183871,19.569896 45.1139792,20.3107487 44.9741935,21.0935484 L29.1645161,21.0935484 Z M29.0806452,16.9 L39.7741935,16.9 C39.4666652,15.4741864 38.83065,14.4118315 37.866129,13.7129032 C36.9016081,13.013975 35.8043073,12.6645161 34.5741935,12.6645161 C33.1204229,12.6645161 31.9182844,13.0349425 30.9677419,13.7758065 C30.0171995,14.5166704 29.3881735,15.5580578 29.0806452,16.9 Z M64.683871,0 L70.0935484,0 L70.0935484,29.3548387 L64.683871,29.3548387 L64.683871,26.8806452 C63.0903147,28.9215156 60.8258211,29.9419355 57.8903226,29.9419355 C55.0666526,29.9419355 52.6553863,28.8725913 50.6564516,26.733871 C48.6575169,24.5951506 47.6580645,21.974209 47.6580645,18.8709677 C47.6580645,15.7677264 48.6575169,13.1467849 50.6564516,11.0080645 C52.6553863,8.86934415 55.0666526,7.8 57.8903226,7.8 C60.8258211,7.8 63.0903147,8.8204199 64.683871,10.8612903 L64.683871,0 Z M54.7032258,23.1483871 C55.821511,24.2387152 57.2193465,24.783871 58.8967742,24.783871 C60.5742019,24.783871 61.958059,24.231726 63.0483871,23.1274194 C64.1387152,22.0231127 64.683871,20.6043097 64.683871,18.8709677 C64.683871,17.1376258 64.1387152,15.7188227 63.0483871,14.6145161 C61.958059,13.5102095 60.5742019,12.9580645 58.8967742,12.9580645 C57.2193465,12.9580645 55.8285002,13.5102095 54.7241935,14.6145161 C53.6198869,15.7188227 53.0677419,17.1376258 53.0677419,18.8709677 C53.0677419,20.6043097 53.6128977,22.0301019 54.7032258,23.1483871 Z M90.9354839,0 L96.3451613,0 L96.3451613,29.3548387 L90.9354839,29.3548387 L90.9354839,26.8806452 C89.3419276,28.9215156 87.077434,29.9419355 84.1419355,29.9419355 C81.3182655,29.9419355 78.9069992,28.8725913 76.9080645,26.733871 C74.9091298,24.5951506 73.9096774,21.974209 73.9096774,18.8709677 C73.9096774,15.7677264 74.9091298,13.1467849 76.9080645,11.0080645 C78.9069992,8.86934415 81.3182655,7.8 84.1419355,7.8 C87.077434,7.8 89.3419276,8.8204199 90.9354839,10.8612903 L90.9354839,0 Z M80.9548387,23.1483871 C82.0731239,24.2387152 83.4709594,24.783871 85.1483871,24.783871 C86.8258148,24.783871 88.2096719,24.231726 89.3,23.1274194 C90.3903281,22.0231127 90.9354839,20.6043097 90.9354839,18.8709677 C90.9354839,17.1376258 90.3903281,15.7188227 89.3,14.6145161 C88.2096719,13.5102095 86.8258148,12.9580645 85.1483871,12.9580645 C83.4709594,12.9580645 82.0801131,13.5102095 80.9758065,14.6145161 C79.8714998,15.7188227 79.3193548,17.1376258 79.3193548,18.8709677 C79.3193548,20.6043097 79.8645106,22.0301019 80.9548387,23.1483871 Z M105.864516,21.0935484 C106.591401,23.7215185 108.56235,25.0354839 111.777419,25.0354839 C113.846247,25.0354839 115.411823,24.3365661 116.474194,22.9387097 L120.835484,25.4548387 C118.766656,28.4462515 115.719375,29.9419355 111.693548,29.9419355 C108.226864,29.9419355 105.445172,28.8935589 103.348387,26.7967742 C101.251602,24.6999895 100.203226,22.0580805 100.203226,18.8709677 C100.203226,15.7118122 101.237624,13.0768923 103.306452,10.966129 C105.375279,8.85536579 108.031167,7.8 111.274194,7.8 C114.349478,7.8 116.886549,8.86235497 118.885484,10.9870968 C120.884419,13.1118386 121.883871,15.7397693 121.883871,18.8709677 C121.883871,19.569896 121.813979,20.3107487 121.674194,21.0935484 L105.864516,21.0935484 Z M105.780645,16.9 L116.474194,16.9 C116.166665,15.4741864 115.53065,14.4118315 114.566129,13.7129032 C113.601608,13.013975 112.504307,12.6645161 111.274194,12.6645161 C109.820423,12.6645161 108.618284,13.0349425 107.667742,13.7758065 C106.7172,14.5166704 106.088174,15.5580578 105.780645,16.9 Z M131.067742,11.9935484 C131.57097,10.6516062 132.402682,9.64516465 133.562903,8.97419355 C134.723124,8.30322245 136.016122,7.96774194 137.441935,7.96774194 L137.441935,14.0064516 C135.792465,13.8107517 134.317748,14.1462322 133.017742,15.0129032 C131.717735,15.8795742 131.067742,17.3193448 131.067742,19.3322581 L131.067742,29.3548387 L125.658065,29.3548387 L125.658065,8.38709677 L131.067742,8.38709677 L131.067742,11.9935484 Z" id="Redder"></path>
                    </g>
                </g>
            </g>
        </g>
    </g>
</svg>