<?xml version="1.0" encoding="UTF-8"?>
<svg width="274px" height="25px" viewBox="0 0 274 25" version="1.1" xmlns="http://www.w3.org/2000/svg" xmlns:xlink="http://www.w3.org/1999/xlink">
    <!-- Generator: Sketch 53.2 (72643) - https://sketchapp.com -->
    <title>logo</title>
    <desc>Created with Sketch.</desc>
    <g id="Symbols" stroke="none" stroke-width="1" fill="none" fill-rule="evenodd">
        <g id="Футер" transform="translate(-90.000000, -100.000000)" fill="#F8F5F2">
            <g id="logo">
                <g transform="translate(90.000000, 100.000000)">
                    <path d="M62.7049116,0.174418605 C61.8604407,0.421016528 61.0655496,0.81457644 60.3563697,1.3372093 C58.7482548,2.53488372 57.9384128,4.58139535 58.1119504,7.02325581 C58.2970571,9.56976744 58.9680691,11 60.5877531,12.2325581 C61.9413463,13.2674419 62.3346981,13.4186047 65.9905564,14.4069767 C67.240027,14.7325581 68.5473434,15.1627907 69.0216795,15.3953488 C70.7454861,16.244186 71.6247431,17.9651163 71.4512055,20.127907 C71.3239447,21.6860465 70.6182252,22.627907 68.9985411,23.4302326 C68.0151615,23.9186047 66.9855052,24.1046512 65.7476038,24.0116279 C63.9081055,23.872093 62.4966665,23.2209302 60.9579666,21.7674419 C59.8704645,20.744186 59.0374841,19.5465116 58.2854879,17.9534884 C57.7764444,16.8604651 57.683891,16.7325581 57.4062309,16.7325581 L57.1054324,16.7325581 L57.1748474,19.255814 C57.2211241,20.6511628 57.2558316,22.4069767 57.2558316,23.1511628 L57.2558316,24.5232558 L57.7185985,24.5232558 C58.1466579,24.5232558 58.1813654,24.4883721 58.4011797,24.0116279 C58.6441323,23.4418605 59.1068991,23.127907 59.6853577,23.127907 C59.8820337,23.127907 60.576184,23.3604651 61.2240576,23.6395349 C63.2833702,24.5348837 64.7410859,24.872093 66.6268609,24.872093 C68.7324502,24.872093 70.0513357,24.3604651 71.3817905,23.0232558 C72.9320595,21.4651163 73.6724865,19.4302326 73.5336565,17.0813953 C73.3601189,14.0697674 71.6594506,11.7325581 68.9754028,10.7906977 C68.6051893,10.6627907 67.1359044,10.244186 65.7128963,9.86046512 C62.8321725,9.09302326 61.9529154,8.73255814 61.0967967,7.95348837 C60.3679389,7.29069767 60.0324329,6.58139535 59.9514487,5.52325581 C59.8588953,4.37209302 60.0671404,3.5 60.6340298,2.65116279 C61.5132869,1.3372093 62.6470657,0.779069767 64.4287182,0.76744186 C67.2168886,0.744186047 69.4497388,2.30232558 71.0000078,5.36046512 C71.3586522,6.04651163 71.4859131,6.22093023 71.7404348,6.24418605 L72.0412333,6.27906977 L71.9833875,3.45348837 C71.9602491,1.89534884 71.9139724,0.558139535 71.8908341,0.476744186 C71.7867115,0.151162791 71.2892371,0.337209302 70.9653003,0.813953488 C70.6645019,1.26744186 70.6297943,1.29069767 70.1785966,1.23255814 C69.9125057,1.20930233 69.2299245,1 68.651466,0.76744186 C68.0208489,0.528091047 67.3754835,0.330002811 66.7194142,0.174418605 C65.6087737,-0.0581395349 63.5494612,-0.0581395349 62.7049116,0.174418605 Z" id="Path"></path>
                    <path d="M159.006698,0.302325581 C157.479568,0.837209302 156.276374,1.79069767 155.547516,3.03488372 C155.311853,3.51322976 155.129496,4.01628175 155.003765,4.53488372 C154.575706,6.19767442 154.807089,8.59302326 155.535947,10.1976744 C156.05656,11.3488372 157.745659,12.8255814 159.168667,13.372093 C159.492604,13.4883721 160.985027,13.9302326 162.47745,14.3488372 C165.40445,15.1511628 166.121739,15.4534884 166.80432,16.1395349 C168.181052,17.5232558 168.585973,19.8604651 167.729854,21.5930233 C167.024134,23.0465116 165.068944,24.0581395 162.940217,24.0581395 C159.943801,24.0581395 157.051508,22 155.281425,18.5930233 C155.038472,18.1162791 154.737674,17.5 154.633551,17.2325581 C154.471583,16.8255814 154.37903,16.7325581 154.147646,16.7325581 L153.858417,16.7325581 L153.858417,19.3837209 C153.858417,20.8488372 153.893124,22.6046512 153.939401,23.2790698 L154.008816,24.5232558 L154.436875,24.5232558 C154.830227,24.5232558 154.876504,24.4883721 155.050042,24.0581395 C155.276887,23.5101456 155.801815,23.146288 156.392066,23.127907 C156.600311,23.127907 157.225046,23.3255814 157.780366,23.5813953 C159.81654,24.5 161.401517,24.872093 163.217877,24.872093 C164.617747,24.872093 165.450727,24.6976744 166.538229,24.1744186 C168.157913,23.3837209 169.476799,21.6744186 170.02055,19.6395349 C170.263503,18.7209302 170.286641,16.6046512 170.066827,15.6860465 C169.775382,14.5673858 169.228766,13.5323024 168.470281,12.6627907 C167.197672,11.2790698 166.596075,10.9883721 162.604711,9.91860465 C161.066011,9.5 159.550449,9.03488372 159.214943,8.88372093 C158.173718,8.40697674 157.375445,7.70930233 157.016801,6.97674419 C156.727571,6.39534884 156.692864,6.20930233 156.692864,5.10465116 C156.692864,3.95348837 156.716002,3.8372093 157.074647,3.10465116 C158.42824,0.325581395 162.292343,-0.0930232558 165.254051,2.20930233 C166.11017,2.88372093 167.024134,4.04651163 167.637301,5.26744186 C168.076929,6.13953488 168.181052,6.26744186 168.412435,6.24418605 L168.690095,6.20930233 L168.678526,4.11627907 C168.666957,2.96511628 168.632249,1.63953488 168.597542,1.1744186 C168.516558,0.360465116 168.504988,0.337209302 168.20419,0.337209302 C167.972807,0.337209302 167.857115,0.430232558 167.706716,0.744186047 C167.37121,1.44186047 167.151395,1.43023256 164.502055,0.5 C163.356707,0.0930232558 163.194739,0.0581395349 161.609762,0.023255814 C160.024785,-0.011627907 159.885955,3.81639165e-17 159.006698,0.302325581 Z" id="Path"></path>
                    <path d="M0.18510675,0.418604651 C0.138830063,0.453488372 0.104122547,0.627906977 0.104122547,0.802325581 C0.104122547,1.11627907 0.115691719,1.11627907 0.971810438,1.1744186 C1.63125324,1.22093023 1.9320517,1.30232558 2.24441935,1.51162791 C3.01955386,2.04651163 2.99641552,1.65116279 2.99641552,11.9186047 C2.99641552,18.0813953 2.95399522,21.3255814 2.86915463,21.6511628 C2.68775709,22.3208417 2.28864626,22.9102676 1.73537578,23.3255814 C1.40727373,23.5099792 1.04501502,23.6247492 0.671011969,23.6627907 C-0.0231383438,23.744186 -0.0231383438,23.744186 0.0115691719,24.1046512 L0.0462766875,24.4651163 L6.64070466,24.4651163 L6.67541218,24.0930233 C6.71011969,23.6976744 6.67541218,23.6744186 5.78458594,23.5348837 C5.13671232,23.4302326 4.60453041,23.2093023 4.3615778,22.9302326 C3.93351844,22.4651163 3.9103801,21.9069767 3.94508761,12.5116279 L3.97979513,3.3372093 L8.01743611,13.9069767 C10.2387171,19.7093023 12.1244921,24.5813953 12.2170455,24.7325581 C12.3028348,24.910788 12.4988219,25.0068769 12.6913816,24.9651163 C12.9806109,24.9302326 13.1425793,24.5232558 17.0182518,13.8837209 L21.0327545,2.8372093 L21.0443237,13.2674419 L21.0443237,23.7093023 L18.1381477,23.7093023 L18.1728552,24.0930233 L18.2075627,24.4651163 L23.1013224,24.5 L27.9835129,24.5232558 L27.9835129,23.7093023 L25.2069117,23.7093023 L25.2069117,1.15116279 L27.9835129,1.15116279 L27.9835129,0.337209302 L24.5011922,0.360465116 L21.0073023,0.395348837 L17.6522425,9.54651163 C15.801175,14.5930233 14.2624751,18.7093023 14.2277676,18.7093023 C14.1930601,18.7093023 12.573376,14.5813953 10.6413243,9.52325581 L7.12429605,0.337209302 L3.688252,0.337209302 C1.80479081,0.337209302 0.219814266,0.372093023 0.18510675,0.418604651 Z" id="Path"></path>
                    <path d="M38.4674965,10.4186047 C36.3156305,15.9767442 34.4298555,20.8023256 34.2794563,21.1511628 C33.6662902,22.5232558 32.6829106,23.4186047 31.5375626,23.6511628 C31.2483333,23.7093023 31.2136257,23.7674419 31.2483333,24.0930233 L31.2830408,24.4651163 L34.4414247,24.5 L37.5882394,24.5232558 L37.5882394,24.127907 C37.5882394,23.6976744 37.4494094,23.5930233 36.88252,23.5930233 C36.2693539,23.5930233 35.6561877,23.255814 35.4479426,22.8139535 C35.0892983,22.0581395 35.2512667,21.255814 36.280923,18.7093023 L37.2064568,16.4418605 L40.7813309,16.4069767 L44.356205,16.3837209 L45.6288139,19.8837209 C46.3345334,21.8139535 46.912992,23.4651163 46.9361303,23.5465116 C46.9708378,23.6744186 46.6700394,23.7093023 45.3395846,23.7093023 L43.7060175,23.7093023 L43.7407251,24.0813953 L43.7754326,24.4651163 L48.8427299,24.5 L53.898458,24.5232558 L53.898458,23.7093023 L51.411086,23.7093023 L47.2461841,12.0232558 L43.0812823,0.337209302 L42.3639936,0.337209302 L38.4674965,10.4186047 Z M42.5514142,11.2093023 L44.0438374,15.5116279 L40.7929001,15.5465116 C39.0112476,15.5581395 37.5303936,15.5581395 37.5072552,15.5348837 C37.4725477,15.4883721 40.7581925,7.04651163 40.9201609,6.80232558 C40.9548685,6.73255814 41.0011452,6.73255814 41.0242835,6.79069767 C41.0474218,6.84883721 41.730003,8.8372093 42.5491003,11.205814 L42.5514142,11.2093023 Z" id="Shape"></path>
                    <path d="M77.8026809,1.05813953 C77.7679734,1.46511628 77.7101275,3.18604651 77.67542,4.89534884 L77.6175742,8.01162791 L78.7397838,8.01162791 L78.8901831,7.10465116 C79.2025507,5.15116279 79.9314085,3.5 80.8685115,2.63953488 C81.8056144,1.77906977 83.1707767,1.3255814 85.2300893,1.19767442 L86.4101448,1.11627907 L86.4101448,23.7093023 L83.5178518,23.7093023 L83.5178518,24.5232558 L93.3516479,24.5232558 L93.3516479,23.7093023 L90.5750467,23.7093023 L90.5750467,1.11627907 L91.6509797,1.19767442 C93.7681381,1.36046512 95.2721305,1.84883721 96.2208025,2.70930233 C97.0653521,3.47674419 97.7132257,5.03488372 98.0140242,7.02325581 L98.1644234,7.95348837 L98.7081745,7.98837209 L99.2519256,8.02325581 L99.2519256,6.98837209 C99.2519256,6.41860465 99.2172181,4.69767442 99.1709414,3.15116279 L99.1015263,0.337209302 L77.8720959,0.337209302 L77.8026809,1.05813953 Z" id="Path"></path>
                    <path d="M103.347412,0.5 C103.310233,0.624379197 103.302312,0.755739199 103.324274,0.88372093 C103.358982,1.06976744 103.52095,1.09302326 104.78199,1.12790698 L106.193429,1.1627907 L106.193429,23.7093023 L103.287253,23.7093023 L103.32196,24.0930233 L103.356668,24.4651163 L112.635144,24.5 L121.925189,24.5232558 L121.971465,24.2674419 C122.133434,23.5232558 122.723461,17.0232558 122.630908,16.9302326 C122.573062,16.872093 122.364817,16.8488372 122.145003,16.872093 C121.774789,16.9069767 121.76322,16.9186047 121.566544,17.8372093 C120.976517,20.5930233 119.935291,22.1976744 118.165208,23.0813953 C117.123982,23.5930233 116.186879,23.7093023 112.878096,23.7093023 L110.356017,23.7093023 L110.356017,12.0813953 L111.605487,12.0813953 C113.028495,12.0813953 113.560677,12.1976744 114.058152,12.627907 C114.555626,13.0581395 114.856425,13.6860465 115.215069,15.1627907 L115.527437,16.4418605 L115.955496,16.4767442 L116.371986,16.5116279 L116.348848,11.6511628 L116.31414,6.79069767 L115.515867,6.79069767 L115.365468,7.72093023 C115.168792,8.86046512 114.810148,9.6744186 114.231689,10.244186 C113.52597,10.9534884 113.121049,11.0813953 111.663333,11.127907 L110.356017,11.1744186 L110.356017,1.15116279 L112.993788,1.15116279 C115.816666,1.15116279 116.684354,1.26744186 117.71401,1.74418605 C119.206433,2.45348837 120.398058,4.45348837 120.826117,6.98837209 C120.895532,7.40697674 120.918671,7.43023256 121.34673,7.43023256 L121.809497,7.43023256 L121.809497,6.75581395 C121.809497,6.39534884 121.728513,4.91860465 121.635959,3.47674419 C121.543406,2.03488372 121.462422,0.744186047 121.462422,0.593023256 L121.462422,0.337209302 L112.438468,0.337209302 C104.675553,0.337209302 103.402944,0.360465116 103.347412,0.5 Z" id="Path"></path>
                    <path d="M127.13363,0.740697674 L127.13363,1.14767442 L129.910231,1.14767442 L129.910231,23.705814 L127.13363,23.705814 L127.13363,24.5197674 L136.967426,24.5197674 L136.967426,23.705814 L134.190825,23.705814 L134.190825,12.194186 L136.157584,12.194186 C138.274742,12.194186 139.038308,12.2988372 139.894426,12.7406977 C140.970359,13.2755814 141.409988,14.6011628 141.94217,18.8802326 C142.462783,23.0895349 143.029672,24.205814 144.892309,24.694186 C146.211194,25.0313953 147.911863,24.8453488 148.941519,24.2406977 C149.293958,24.0105268 149.609872,23.7282879 149.878622,23.4034884 L150.306681,22.8802326 L150.005883,22.5662791 L149.693515,22.2639535 L149.381147,22.5662791 C148.201092,23.6593023 147.344973,23.7523256 146.96319,22.822093 C146.870637,22.6011628 146.662392,21.4383721 146.511993,20.2290698 C145.725289,14.1593023 144.984862,13.0081395 141.271158,12.1127907 C139.582059,11.694186 139.582059,11.705814 140.496023,11.5895349 C141.52568,11.4732558 143.20321,10.9965116 144.013052,10.6011628 C144.799755,10.2174419 146.083933,9.00813953 146.488854,8.26395349 C147.483803,6.43837209 147.298696,3.99651163 146.072364,2.58953488 C145.135261,1.50813953 142.752012,0.68255814 139.975411,0.461627907 C139.119292,0.391860465 135.879924,0.33372093 132.779386,0.33372093 L127.13363,0.33372093 L127.13363,0.740697674 Z M139.43166,1.42674419 C141.52568,2.00813953 142.266107,2.98488372 142.381798,5.31046512 C142.474352,7.24069767 142.138846,8.75232558 141.409988,9.71744186 C141.051344,10.194186 139.686181,10.8686047 138.621817,11.0895349 C138.193758,11.1825581 137.013703,11.2988372 136.018754,11.3337209 L134.190825,11.4151163 L134.190825,1.1127907 L136.481521,1.18255814 C138.043359,1.22093023 138.968893,1.30232558 139.43166,1.43023256 L139.43166,1.42674419 Z" id="Shape"></path>
                    <path d="M175.030001,0.740697674 L175.030001,1.14767442 L177.806603,1.14767442 L177.806603,23.705814 L175.030001,23.705814 L175.030001,24.5197674 L184.632414,24.5197674 L184.632414,23.705814 L182.087196,23.705814 L182.087196,14.0895349 L183.336667,12.7872093 L184.574568,11.4732558 L187.964336,17.5313953 C189.815403,20.8686047 191.342534,23.6127907 191.342534,23.6476744 C191.342534,23.6825581 190.613676,23.705814 189.72285,23.705814 L188.103166,23.705814 L188.103166,24.5197674 L198.052653,24.5197674 L198.052653,23.705814 L197.393211,23.705814 L196.722199,23.694186 L192.059822,16.1244186 L187.397446,8.54302326 L190.150909,5.7755814 C193.725783,2.15930233 194.350518,1.68255814 196.00491,1.2755814 C196.803183,1.07790698 196.83789,1.05465116 196.83789,0.729069767 L196.83789,0.391860465 L188.161011,0.391860465 L188.161011,0.740697674 C188.161011,1.08953488 188.161011,1.08953488 189.01713,1.18255814 C190.798783,1.38023256 191.608625,2.26395349 191.041735,3.39186047 C190.810352,3.82209302 190.127771,4.55465116 185.534809,9.2755814 L182.087196,12.8104651 L182.087196,1.14767442 L184.632414,1.14767442 L184.632414,0.33372093 L175.030001,0.33372093 L175.030001,0.740697674 Z" id="Path"></path>
                    <path d="M207.307991,10.9418605 C204.415698,18.3953488 203.085243,21.7093023 202.796014,22.1162791 C202.252263,22.8953488 201.650666,23.3604651 200.979654,23.5348837 C200.459041,23.6627907 200.424334,23.6976744 200.389626,24.1046512 L200.354919,24.5232558 L206.613841,24.5232558 L206.613841,24.127907 C206.613841,23.6860465 206.579133,23.6627907 205.665169,23.5348837 C204.681789,23.4069767 204.207453,22.7209302 204.334714,21.6046512 C204.39256,21.1511628 205.526338,18.1046512 206.162643,16.6976744 L206.301473,16.3837209 L213.404945,16.3837209 L214.72383,20.0116279 L216.042716,23.6511628 L214.457739,23.6860465 L212.861193,23.7209302 L212.861193,24.5232558 L222.926373,24.5232558 L222.926373,23.7209302 L221.688472,23.6860465 L220.462139,23.6511628 L216.297238,11.9883721 L212.132336,0.337209302 L211.415047,0.337209302 L207.307991,10.9418605 Z M211.611723,11.1976744 C212.421565,13.5581395 213.081008,15.5116279 213.057869,15.5348837 C213.034731,15.5581395 211.553877,15.5581395 209.760655,15.5465116 L206.521287,15.5116279 L208.268232,11.0581395 C209.228473,8.60465116 210.038316,6.6627907 210.073023,6.75581395 C210.107731,6.84883721 210.790312,8.8372093 211.611723,11.1976744 L211.611723,11.1976744 Z" id="Shape"></path>
                    <path d="M225.240207,0.740697674 L225.240207,1.14767442 L227.415212,1.14767442 L231.128916,8.04302326 L234.84262,14.9383721 L234.84262,23.705814 L231.936444,23.705814 L231.971152,24.077907 L232.005859,24.4616279 L236.899619,24.4965116 L241.781809,24.5197674 L241.781809,23.705814 L239.005208,23.705814 L239.005208,13.95 L241.677687,8.97325581 C244.627826,3.49651163 244.789794,3.22906977 245.645913,2.33372093 C246.351632,1.58953488 246.918522,1.2755814 247.693656,1.18255814 C248.248976,1.1127907 248.260546,1.10116279 248.260546,0.71744186 L248.260546,0.33372093 L244.303889,0.356976744 L240.335663,0.391860465 L240.335663,0.740697674 C240.335663,1.07790698 240.347232,1.07790698 241.226489,1.20581395 C242.1983,1.33372093 242.591651,1.55465116 243.03128,2.19418605 C243.320509,2.6244186 243.366786,3.40348837 243.158541,4.06627907 C243.008142,4.53139535 238.519303,12.9965116 238.41518,13.0081395 C238.380473,13.0081395 237.003741,10.3569767 235.34935,7.10116279 L232.341365,1.20581395 L233.625543,1.14767442 L234.898152,1.08953488 L234.898152,0.391860465 L230.073807,0.356976744 L225.237894,0.33372093 L225.240207,0.740697674 Z" id="Path"></path>
                    <path d="M261.301316,1.06976744 C261.139348,1.47674419 259.299849,6.19767442 257.228968,11.5697674 C255.158086,16.9418605 253.318588,21.5465116 253.156619,21.8023256 C252.624437,22.7325581 251.710473,23.4418605 250.784939,23.6395349 C250.507279,23.7093023 250.461002,23.7674419 250.461002,24.1162791 L250.461002,24.5232558 L256.824047,24.5232558 L256.824047,24.127907 C256.824047,23.6976744 256.685217,23.5930233 256.095189,23.5930233 C255.505161,23.5930233 254.799442,23.2093023 254.637473,22.7906977 C254.325105,22.0465116 254.510212,21.1511628 255.505161,18.6860465 L256.419126,16.3837209 L259.994,16.4186047 L263.568874,16.4418605 L264.829914,19.872093 C265.512495,21.755814 266.114092,23.3953488 266.148799,23.5 C266.206645,23.6976744 266.079384,23.7093023 264.586961,23.7093023 L262.955708,23.7093023 L262.955708,24.5232558 L273.136579,24.5232558 L273.136579,23.7093023 L270.637638,23.7093023 L266.472736,12.0465116 L262.307834,0.395348837 L261.94919,0.360465116 C261.613684,0.325581395 261.578976,0.360465116 261.301316,1.06976744 L261.301316,1.06976744 Z M261.740945,11.127907 L263.244937,15.5116279 L260.017138,15.5465116 C258.247055,15.5581395 256.766201,15.5465116 256.731493,15.5232558 C256.673647,15.4651163 260.098122,6.73255814 260.179106,6.73255814 C260.213814,6.73255814 260.919533,8.70930233 261.740945,11.127907 Z" id="Shape"></path>
                </g>
            </g>
        </g>
    </g>
</svg>